G04 #@! TF.GenerationSoftware,KiCad,Pcbnew,8.0.7*
G04 #@! TF.CreationDate,2024-12-04T23:59:10+01:00*
G04 #@! TF.ProjectId,LuminO,4c756d69-6e4f-42e6-9b69-6361645f7063,rev?*
G04 #@! TF.SameCoordinates,Original*
G04 #@! TF.FileFunction,Legend,Top*
G04 #@! TF.FilePolarity,Positive*
%FSLAX46Y46*%
G04 Gerber Fmt 4.6, Leading zero omitted, Abs format (unit mm)*
G04 Created by KiCad (PCBNEW 8.0.7) date 2024-12-04 23:59:10*
%MOMM*%
%LPD*%
G01*
G04 APERTURE LIST*
%ADD10C,0.125000*%
%ADD11C,0.187500*%
%ADD12C,0.150000*%
%ADD13C,0.120000*%
G04 APERTURE END LIST*
D10*
G36*
X116243266Y-98314185D02*
G01*
X116393475Y-98314185D01*
X116418591Y-98318934D01*
X116440871Y-98331937D01*
X116445499Y-98335800D01*
X116461392Y-98354874D01*
X116469446Y-98378797D01*
X116470045Y-98388190D01*
X116461253Y-98407852D01*
X116441835Y-98415790D01*
X116421563Y-98409562D01*
X116411374Y-98387172D01*
X116411061Y-98386114D01*
X116393042Y-98369164D01*
X116388957Y-98368895D01*
X116246441Y-98368895D01*
X116236183Y-98376222D01*
X116240701Y-98386359D01*
X116454536Y-98662475D01*
X116466638Y-98684306D01*
X116470045Y-98704485D01*
X116464738Y-98729396D01*
X116451239Y-98748571D01*
X116430180Y-98763340D01*
X116409595Y-98767500D01*
X116254013Y-98767500D01*
X116228521Y-98763245D01*
X116206114Y-98750483D01*
X116200279Y-98745273D01*
X116184668Y-98724984D01*
X116177643Y-98701378D01*
X116177443Y-98696425D01*
X116185956Y-98672603D01*
X116207607Y-98665894D01*
X116227512Y-98673832D01*
X116235817Y-98692395D01*
X116242167Y-98707049D01*
X116258165Y-98712789D01*
X116401657Y-98712789D01*
X116410939Y-98703142D01*
X116406420Y-98693005D01*
X116192830Y-98419087D01*
X116181014Y-98397637D01*
X116177687Y-98377566D01*
X116183098Y-98352248D01*
X116196860Y-98333114D01*
X116218109Y-98318917D01*
X116243266Y-98314185D01*
G37*
G36*
X116770506Y-98317508D02*
G01*
X116793022Y-98328995D01*
X116810196Y-98348687D01*
X116814306Y-98356195D01*
X116877809Y-98484788D01*
X116886992Y-98508604D01*
X116891032Y-98534103D01*
X116891242Y-98541697D01*
X116888671Y-98567329D01*
X116880957Y-98591652D01*
X116877809Y-98598361D01*
X116814306Y-98725490D01*
X116800681Y-98745797D01*
X116780331Y-98760566D01*
X116754494Y-98767130D01*
X116745674Y-98767500D01*
X116721176Y-98763713D01*
X116704152Y-98755532D01*
X116685585Y-98739167D01*
X116676553Y-98725490D01*
X116612683Y-98598361D01*
X116604001Y-98575254D01*
X116600181Y-98549528D01*
X116599983Y-98541697D01*
X116600045Y-98540964D01*
X116658357Y-98540964D01*
X116661880Y-98565232D01*
X116666539Y-98577356D01*
X116728088Y-98701310D01*
X116745551Y-98712789D01*
X116762404Y-98701310D01*
X116824198Y-98577356D01*
X116831736Y-98553419D01*
X116832746Y-98540964D01*
X116828706Y-98515750D01*
X116824198Y-98504938D01*
X116763748Y-98382451D01*
X116745551Y-98368895D01*
X116726378Y-98382451D01*
X116666539Y-98504938D01*
X116659324Y-98528773D01*
X116658357Y-98540964D01*
X116600045Y-98540964D01*
X116602079Y-98516987D01*
X116609024Y-98492811D01*
X116612683Y-98484788D01*
X116676553Y-98356195D01*
X116690759Y-98335887D01*
X116711348Y-98321118D01*
X116736994Y-98314554D01*
X116745674Y-98314185D01*
X116770506Y-98317508D01*
G37*
G36*
X117088346Y-98314185D02*
G01*
X117238556Y-98314185D01*
X117263672Y-98318934D01*
X117285951Y-98331937D01*
X117290579Y-98335800D01*
X117306472Y-98354874D01*
X117314526Y-98378797D01*
X117315126Y-98388190D01*
X117306333Y-98407852D01*
X117286916Y-98415790D01*
X117266644Y-98409562D01*
X117256455Y-98387172D01*
X117256141Y-98386114D01*
X117238122Y-98369164D01*
X117234037Y-98368895D01*
X117091521Y-98368895D01*
X117081263Y-98376222D01*
X117085782Y-98386359D01*
X117299616Y-98662475D01*
X117311718Y-98684306D01*
X117315126Y-98704485D01*
X117309818Y-98729396D01*
X117296319Y-98748571D01*
X117275260Y-98763340D01*
X117254676Y-98767500D01*
X117099093Y-98767500D01*
X117073601Y-98763245D01*
X117051195Y-98750483D01*
X117045360Y-98745273D01*
X117029748Y-98724984D01*
X117022724Y-98701378D01*
X117022523Y-98696425D01*
X117031036Y-98672603D01*
X117052687Y-98665894D01*
X117072593Y-98673832D01*
X117080897Y-98692395D01*
X117087247Y-98707049D01*
X117103245Y-98712789D01*
X117246738Y-98712789D01*
X117256019Y-98703142D01*
X117251500Y-98693005D01*
X117037910Y-98419087D01*
X117026094Y-98397637D01*
X117022767Y-98377566D01*
X117028178Y-98352248D01*
X117041940Y-98333114D01*
X117063189Y-98318917D01*
X117088346Y-98314185D01*
G37*
G36*
X117445063Y-98738801D02*
G01*
X117445063Y-98343494D01*
X117453489Y-98322733D01*
X117473884Y-98314185D01*
X117494278Y-98322733D01*
X117502704Y-98343372D01*
X117502704Y-98481613D01*
X117687474Y-98321878D01*
X117709089Y-98314185D01*
X117729362Y-98322123D01*
X117737666Y-98340441D01*
X117728385Y-98359125D01*
X117518824Y-98536934D01*
X117728385Y-98722681D01*
X117736933Y-98740389D01*
X117728507Y-98759073D01*
X117707746Y-98767500D01*
X117686863Y-98759439D01*
X117502704Y-98596285D01*
X117502704Y-98737824D01*
X117494278Y-98758829D01*
X117473884Y-98767500D01*
X117453611Y-98759195D01*
X117445063Y-98738801D01*
G37*
G36*
X118581403Y-98539132D02*
G01*
X118581403Y-98565266D01*
X118572976Y-98586638D01*
X118552582Y-98595553D01*
X118319574Y-98595553D01*
X118299180Y-98586638D01*
X118290754Y-98565266D01*
X118290754Y-98539132D01*
X118299180Y-98518250D01*
X118319574Y-98509579D01*
X118552582Y-98509579D01*
X118572488Y-98517883D01*
X118581403Y-98539132D01*
G37*
G36*
X119135834Y-98767500D02*
G01*
X119135834Y-98342883D01*
X119144383Y-98322733D01*
X119164655Y-98314185D01*
X119184927Y-98322855D01*
X119193597Y-98343005D01*
X119193597Y-98712789D01*
X119397540Y-98712789D01*
X119418301Y-98720849D01*
X119427094Y-98740144D01*
X119418301Y-98759562D01*
X119397540Y-98767500D01*
X119135834Y-98767500D01*
G37*
G36*
X119695394Y-98712789D02*
G01*
X119792603Y-98658079D01*
X119792603Y-98469767D01*
X119801029Y-98448274D01*
X119821424Y-98439237D01*
X119841940Y-98447908D01*
X119850366Y-98468424D01*
X119850366Y-98739045D01*
X119841696Y-98759073D01*
X119821424Y-98767500D01*
X119801152Y-98758463D01*
X119792603Y-98736847D01*
X119792603Y-98712789D01*
X119742411Y-98747472D01*
X119720217Y-98759676D01*
X119695903Y-98766541D01*
X119682694Y-98767500D01*
X119655949Y-98767500D01*
X119630796Y-98764065D01*
X119608459Y-98753761D01*
X119595133Y-98743075D01*
X119579413Y-98723137D01*
X119570357Y-98700142D01*
X119568022Y-98683114D01*
X119559718Y-98467814D01*
X119567778Y-98447908D01*
X119588538Y-98439237D01*
X119608688Y-98447908D01*
X119617481Y-98468180D01*
X119625052Y-98681770D01*
X119634395Y-98705034D01*
X119658348Y-98712759D01*
X119660468Y-98712789D01*
X119695394Y-98712789D01*
G37*
G36*
X119973709Y-98738923D02*
G01*
X119973709Y-98467814D01*
X119982136Y-98447541D01*
X120002530Y-98439237D01*
X120025466Y-98449281D01*
X120030740Y-98460486D01*
X120051194Y-98446728D01*
X120075250Y-98439756D01*
X120084351Y-98439237D01*
X120108629Y-98443135D01*
X120131014Y-98456157D01*
X120141382Y-98466959D01*
X120160922Y-98451176D01*
X120183719Y-98441430D01*
X120201832Y-98439237D01*
X120226836Y-98443969D01*
X120248360Y-98458166D01*
X120262856Y-98478078D01*
X120269247Y-98502552D01*
X120269487Y-98506160D01*
X120277669Y-98739045D01*
X120268999Y-98759073D01*
X120248849Y-98767500D01*
X120228210Y-98758951D01*
X120219295Y-98738679D01*
X120212457Y-98512510D01*
X120201099Y-98493948D01*
X120189131Y-98499077D01*
X120154693Y-98528019D01*
X120154693Y-98739289D01*
X120146267Y-98759317D01*
X120125872Y-98767500D01*
X120105600Y-98759073D01*
X120097052Y-98738557D01*
X120097052Y-98508724D01*
X120084351Y-98493948D01*
X120072994Y-98498466D01*
X120031473Y-98533515D01*
X120031473Y-98738679D01*
X120023168Y-98758951D01*
X120003263Y-98767500D01*
X119982502Y-98759073D01*
X119973709Y-98738923D01*
G37*
G36*
X120518859Y-98282922D02*
G01*
X120549145Y-98282922D01*
X120569540Y-98291714D01*
X120577966Y-98312719D01*
X120577966Y-98338365D01*
X120569540Y-98359858D01*
X120549145Y-98368895D01*
X120518126Y-98368895D01*
X120497366Y-98359736D01*
X120489306Y-98339098D01*
X120490039Y-98312719D01*
X120498465Y-98291714D01*
X120518859Y-98282922D01*
G37*
G36*
X120636340Y-98767500D02*
G01*
X120460485Y-98767500D01*
X120440091Y-98759562D01*
X120431664Y-98740144D01*
X120440091Y-98720971D01*
X120460485Y-98712789D01*
X120519592Y-98712789D01*
X120519592Y-98493948D01*
X120461096Y-98493948D01*
X120440701Y-98485887D01*
X120432275Y-98466959D01*
X120440701Y-98447419D01*
X120461096Y-98439237D01*
X120549145Y-98439237D01*
X120569540Y-98448030D01*
X120577966Y-98468790D01*
X120577966Y-98712789D01*
X120635607Y-98712789D01*
X120656368Y-98720849D01*
X120665161Y-98740144D01*
X120656490Y-98759562D01*
X120636340Y-98767500D01*
G37*
G36*
X120962404Y-98501641D02*
G01*
X120883758Y-98540842D01*
X120883758Y-98736847D01*
X120875087Y-98758463D01*
X120854815Y-98767500D01*
X120834543Y-98759073D01*
X120825995Y-98739045D01*
X120825995Y-98468424D01*
X120834421Y-98447908D01*
X120854815Y-98439237D01*
X120875087Y-98447663D01*
X120883758Y-98467691D01*
X120883758Y-98486132D01*
X120936270Y-98455479D01*
X120958910Y-98444963D01*
X120983767Y-98439808D01*
X120995988Y-98439237D01*
X121022854Y-98439237D01*
X121047286Y-98442637D01*
X121070808Y-98453995D01*
X121082205Y-98463417D01*
X121097724Y-98483041D01*
X121106546Y-98505824D01*
X121108706Y-98522768D01*
X121116644Y-98739045D01*
X121108339Y-98759073D01*
X121087701Y-98767500D01*
X121067795Y-98759806D01*
X121058880Y-98738801D01*
X121050332Y-98524112D01*
X121040918Y-98500575D01*
X121018702Y-98493948D01*
X120990614Y-98493948D01*
X120966158Y-98499838D01*
X120962404Y-98501641D01*
G37*
G36*
X121418448Y-98317508D02*
G01*
X121440964Y-98328995D01*
X121458137Y-98348687D01*
X121462247Y-98356195D01*
X121525750Y-98484788D01*
X121534933Y-98508604D01*
X121538974Y-98534103D01*
X121539184Y-98541697D01*
X121536612Y-98567329D01*
X121528899Y-98591652D01*
X121525750Y-98598361D01*
X121462247Y-98725490D01*
X121448622Y-98745797D01*
X121428272Y-98760566D01*
X121402436Y-98767130D01*
X121393615Y-98767500D01*
X121369117Y-98763713D01*
X121352094Y-98755532D01*
X121333527Y-98739167D01*
X121324494Y-98725490D01*
X121260625Y-98598361D01*
X121251943Y-98575254D01*
X121248123Y-98549528D01*
X121247924Y-98541697D01*
X121247986Y-98540964D01*
X121306298Y-98540964D01*
X121309822Y-98565232D01*
X121314480Y-98577356D01*
X121376029Y-98701310D01*
X121393493Y-98712789D01*
X121410346Y-98701310D01*
X121472139Y-98577356D01*
X121479677Y-98553419D01*
X121480688Y-98540964D01*
X121476647Y-98515750D01*
X121472139Y-98504938D01*
X121411689Y-98382451D01*
X121393493Y-98368895D01*
X121374320Y-98382451D01*
X121314480Y-98504938D01*
X121307265Y-98528773D01*
X121306298Y-98540964D01*
X121247986Y-98540964D01*
X121250020Y-98516987D01*
X121256966Y-98492811D01*
X121260625Y-98484788D01*
X121324494Y-98356195D01*
X121338701Y-98335887D01*
X121359290Y-98321118D01*
X121384935Y-98314554D01*
X121393615Y-98314185D01*
X121418448Y-98317508D01*
G37*
G36*
X117139271Y-99329429D02*
G01*
X117139271Y-99315141D01*
X117079431Y-99232342D01*
X117079431Y-99578801D01*
X117071005Y-99599195D01*
X117050610Y-99607500D01*
X117030216Y-99598951D01*
X117021790Y-99578801D01*
X117021790Y-99154185D01*
X117096284Y-99154185D01*
X117167359Y-99261652D01*
X117240631Y-99154185D01*
X117313782Y-99154185D01*
X117313782Y-99578801D01*
X117304989Y-99599195D01*
X117284229Y-99607500D01*
X117263834Y-99598951D01*
X117255286Y-99578679D01*
X117255286Y-99232342D01*
X117196912Y-99313797D01*
X117196912Y-99329429D01*
X117188363Y-99349091D01*
X117168091Y-99357395D01*
X117147697Y-99349091D01*
X117139271Y-99329429D01*
G37*
G36*
X117561078Y-99419921D02*
G01*
X117619574Y-99419921D01*
X117639724Y-99428469D01*
X117648395Y-99449230D01*
X117648395Y-99499300D01*
X117639968Y-99520427D01*
X117619574Y-99529342D01*
X117560345Y-99529342D01*
X117539951Y-99520671D01*
X117531525Y-99500033D01*
X117531525Y-99449230D01*
X117540073Y-99428469D01*
X117561078Y-99419921D01*
G37*
G36*
X118465265Y-99331627D02*
G01*
X118465265Y-99524457D01*
X118482118Y-99552789D01*
X118506176Y-99552789D01*
X118523639Y-99523968D01*
X118523639Y-99183738D01*
X118532310Y-99162978D01*
X118553192Y-99154185D01*
X118573343Y-99162733D01*
X118582013Y-99182883D01*
X118582013Y-99530807D01*
X118574808Y-99548881D01*
X118548063Y-99592845D01*
X118527964Y-99607142D01*
X118522906Y-99607500D01*
X118468684Y-99607500D01*
X118444629Y-99599707D01*
X118435712Y-99585396D01*
X118419636Y-99604391D01*
X118404082Y-99607500D01*
X118353280Y-99607500D01*
X118329793Y-99600610D01*
X118321772Y-99591502D01*
X118296982Y-99550225D01*
X118290143Y-99530807D01*
X118290143Y-99183494D01*
X118298814Y-99162855D01*
X118319696Y-99154185D01*
X118339358Y-99162978D01*
X118347784Y-99183738D01*
X118347784Y-99525312D01*
X118364637Y-99552789D01*
X118389306Y-99552789D01*
X118407502Y-99523846D01*
X118407502Y-99331627D01*
X118415928Y-99311111D01*
X118436322Y-99302684D01*
X118456839Y-99311111D01*
X118465265Y-99331627D01*
G37*
G36*
X118850314Y-99552789D02*
G01*
X118947523Y-99498079D01*
X118947523Y-99309767D01*
X118955949Y-99288274D01*
X118976343Y-99279237D01*
X118996860Y-99287908D01*
X119005286Y-99308424D01*
X119005286Y-99579045D01*
X118996615Y-99599073D01*
X118976343Y-99607500D01*
X118956071Y-99598463D01*
X118947523Y-99576847D01*
X118947523Y-99552789D01*
X118897331Y-99587472D01*
X118875137Y-99599676D01*
X118850823Y-99606541D01*
X118837613Y-99607500D01*
X118810869Y-99607500D01*
X118785715Y-99604065D01*
X118763379Y-99593761D01*
X118750052Y-99583075D01*
X118734333Y-99563137D01*
X118725277Y-99540142D01*
X118722941Y-99523114D01*
X118714637Y-99307814D01*
X118722697Y-99287908D01*
X118743458Y-99279237D01*
X118763608Y-99287908D01*
X118772400Y-99308180D01*
X118779972Y-99521770D01*
X118789314Y-99545034D01*
X118813267Y-99552759D01*
X118815387Y-99552789D01*
X118850314Y-99552789D01*
G37*
G36*
X119216556Y-99279237D02*
G01*
X119348814Y-99279237D01*
X119374469Y-99282580D01*
X119397366Y-99292608D01*
X119403402Y-99296700D01*
X119421171Y-99313859D01*
X119427093Y-99330650D01*
X119418301Y-99349945D01*
X119398883Y-99357395D01*
X119375998Y-99347766D01*
X119373848Y-99345671D01*
X119351695Y-99333993D01*
X119350157Y-99333948D01*
X119219609Y-99333948D01*
X119200511Y-99349833D01*
X119200436Y-99352021D01*
X119213137Y-99371195D01*
X119366643Y-99436530D01*
X119387862Y-99449902D01*
X119404867Y-99469502D01*
X119415649Y-99491756D01*
X119419830Y-99516156D01*
X119419888Y-99519572D01*
X119416196Y-99545635D01*
X119405119Y-99568505D01*
X119393632Y-99581976D01*
X119372944Y-99597529D01*
X119348284Y-99606278D01*
X119334037Y-99607500D01*
X119217289Y-99607500D01*
X119191690Y-99604204D01*
X119167681Y-99594316D01*
X119161113Y-99590280D01*
X119142530Y-99574264D01*
X119135223Y-99556697D01*
X119143650Y-99537646D01*
X119165387Y-99529342D01*
X119188172Y-99540344D01*
X119188957Y-99541065D01*
X119211505Y-99551644D01*
X119225227Y-99552789D01*
X119332571Y-99552789D01*
X119353821Y-99542042D01*
X119362457Y-99518980D01*
X119362491Y-99517252D01*
X119354234Y-99494141D01*
X119343318Y-99486233D01*
X119188468Y-99420898D01*
X119167618Y-99408002D01*
X119154030Y-99392444D01*
X119144037Y-99370040D01*
X119142062Y-99354464D01*
X119146176Y-99329316D01*
X119158518Y-99307300D01*
X119163555Y-99301585D01*
X119184279Y-99286308D01*
X119208836Y-99279586D01*
X119216556Y-99279237D01*
G37*
G36*
X119761095Y-99607500D02*
G01*
X119703332Y-99607500D01*
X119677978Y-99603927D01*
X119655407Y-99593211D01*
X119641905Y-99582098D01*
X119626203Y-99561605D01*
X119617748Y-99538226D01*
X119616137Y-99521038D01*
X119616137Y-99333948D01*
X119586584Y-99333948D01*
X119566190Y-99326132D01*
X119557763Y-99306592D01*
X119566190Y-99287297D01*
X119586584Y-99279237D01*
X119616748Y-99279237D01*
X119616748Y-99207063D01*
X119625174Y-99186303D01*
X119645569Y-99177632D01*
X119665719Y-99186425D01*
X119674511Y-99207063D01*
X119674511Y-99279237D01*
X119790649Y-99279237D01*
X119810799Y-99287419D01*
X119819470Y-99306592D01*
X119810799Y-99326010D01*
X119790649Y-99333948D01*
X119673779Y-99333948D01*
X119673779Y-99523602D01*
X119682571Y-99544118D01*
X119703332Y-99552789D01*
X119759752Y-99552789D01*
X119782440Y-99543630D01*
X119790283Y-99529342D01*
X119805233Y-99509192D01*
X119819470Y-99505894D01*
X119840230Y-99513832D01*
X119848290Y-99533860D01*
X119842154Y-99558498D01*
X119826716Y-99580006D01*
X119823744Y-99583075D01*
X119803428Y-99597959D01*
X119779299Y-99605973D01*
X119761095Y-99607500D01*
G37*
G36*
X120213800Y-99607500D02*
G01*
X120039288Y-99607500D01*
X120018894Y-99599317D01*
X120010467Y-99579778D01*
X120018894Y-99560849D01*
X120039288Y-99552789D01*
X120097052Y-99552789D01*
X120097052Y-99208895D01*
X120038555Y-99208895D01*
X120018161Y-99200957D01*
X120009735Y-99181540D01*
X120018161Y-99162245D01*
X120038555Y-99154185D01*
X120126605Y-99154185D01*
X120146755Y-99162855D01*
X120155426Y-99183128D01*
X120155426Y-99552789D01*
X120213800Y-99552789D01*
X120233950Y-99560849D01*
X120242620Y-99579778D01*
X120234194Y-99599317D01*
X120213800Y-99607500D01*
G37*
G36*
X120518859Y-99122922D02*
G01*
X120549145Y-99122922D01*
X120569539Y-99131714D01*
X120577966Y-99152719D01*
X120577966Y-99178365D01*
X120569539Y-99199858D01*
X120549145Y-99208895D01*
X120518126Y-99208895D01*
X120497366Y-99199736D01*
X120489306Y-99179098D01*
X120490038Y-99152719D01*
X120498465Y-99131714D01*
X120518859Y-99122922D01*
G37*
G36*
X120636340Y-99607500D02*
G01*
X120460485Y-99607500D01*
X120440091Y-99599562D01*
X120431664Y-99580144D01*
X120440091Y-99560971D01*
X120460485Y-99552789D01*
X120519592Y-99552789D01*
X120519592Y-99333948D01*
X120461095Y-99333948D01*
X120440701Y-99325887D01*
X120432275Y-99306959D01*
X120440701Y-99287419D01*
X120461095Y-99279237D01*
X120549145Y-99279237D01*
X120569539Y-99288030D01*
X120577966Y-99308790D01*
X120577966Y-99552789D01*
X120635607Y-99552789D01*
X120656368Y-99560849D01*
X120665160Y-99580144D01*
X120656490Y-99599562D01*
X120636340Y-99607500D01*
G37*
G36*
X121088433Y-99607500D02*
G01*
X120965091Y-99607500D01*
X120940190Y-99604295D01*
X120916936Y-99593676D01*
X120909525Y-99588082D01*
X120853472Y-99539844D01*
X120837174Y-99521051D01*
X120828399Y-99497827D01*
X120826727Y-99479883D01*
X120826727Y-99405389D01*
X120830356Y-99379434D01*
X120843259Y-99356158D01*
X120857013Y-99342130D01*
X120907449Y-99299021D01*
X120929452Y-99285497D01*
X120954426Y-99279411D01*
X120959595Y-99279237D01*
X121089166Y-99279237D01*
X121109560Y-99287297D01*
X121117987Y-99306592D01*
X121109560Y-99326132D01*
X121089166Y-99333948D01*
X120965091Y-99333948D01*
X120942865Y-99343351D01*
X120896458Y-99383407D01*
X120885279Y-99405432D01*
X120885101Y-99409419D01*
X120885101Y-99480737D01*
X120894016Y-99500277D01*
X120944818Y-99544118D01*
X120968274Y-99552755D01*
X120970220Y-99552789D01*
X121088433Y-99552789D01*
X121108583Y-99560849D01*
X121117254Y-99580144D01*
X121108828Y-99599562D01*
X121088433Y-99607500D01*
G37*
G36*
X121247924Y-99578801D02*
G01*
X121247924Y-99182151D01*
X121256350Y-99162367D01*
X121276744Y-99154185D01*
X121297139Y-99162489D01*
X121305565Y-99182639D01*
X121305565Y-99326132D01*
X121351971Y-99297922D01*
X121374714Y-99286536D01*
X121398774Y-99279894D01*
X121408269Y-99279237D01*
X121444051Y-99279237D01*
X121469130Y-99282758D01*
X121491426Y-99293319D01*
X121504745Y-99304272D01*
X121520436Y-99324485D01*
X121529223Y-99347755D01*
X121531246Y-99364966D01*
X121538451Y-99578923D01*
X121530146Y-99599195D01*
X121509508Y-99607500D01*
X121489236Y-99598829D01*
X121480687Y-99578801D01*
X121473482Y-99362646D01*
X121464567Y-99342496D01*
X121443929Y-99333948D01*
X121411689Y-99333948D01*
X121387631Y-99340420D01*
X121305565Y-99380842D01*
X121305565Y-99576725D01*
X121297139Y-99598585D01*
X121276744Y-99607500D01*
X121256350Y-99599195D01*
X121247924Y-99578801D01*
G37*
G36*
X117704288Y-99999954D02*
G01*
X117718492Y-100010549D01*
X117732156Y-100032134D01*
X117734857Y-100049384D01*
X117734857Y-100392301D01*
X117729088Y-100417094D01*
X117718492Y-100431379D01*
X117696794Y-100444839D01*
X117679169Y-100447500D01*
X117500017Y-100447500D01*
X117475957Y-100442399D01*
X117460450Y-100431379D01*
X117446990Y-100409767D01*
X117444404Y-100392789D01*
X117501971Y-100392789D01*
X117677826Y-100392789D01*
X117677826Y-100048895D01*
X117501971Y-100048895D01*
X117501971Y-100392789D01*
X117444404Y-100392789D01*
X117444330Y-100392301D01*
X117444330Y-100049384D01*
X117450142Y-100024853D01*
X117460816Y-100010549D01*
X117482589Y-99996886D01*
X117500017Y-99994185D01*
X117679902Y-99994185D01*
X117704288Y-99999954D01*
G37*
G36*
X118056769Y-100418801D02*
G01*
X118056769Y-100299000D01*
X117882990Y-100299000D01*
X117882990Y-100023494D01*
X117891661Y-100002855D01*
X117912543Y-99994185D01*
X117932693Y-100002978D01*
X117941364Y-100023860D01*
X117941364Y-100244289D01*
X118056769Y-100244289D01*
X118056769Y-100071366D01*
X118065195Y-100050116D01*
X118085589Y-100041079D01*
X118106106Y-100050116D01*
X118114532Y-100071366D01*
X118114532Y-100244289D01*
X118134926Y-100252349D01*
X118143353Y-100271645D01*
X118134926Y-100291062D01*
X118114532Y-100299000D01*
X118114532Y-100418923D01*
X118105862Y-100439195D01*
X118085589Y-100447500D01*
X118065195Y-100439195D01*
X118056769Y-100418801D01*
G37*
G36*
X118406158Y-100259921D02*
G01*
X118464654Y-100259921D01*
X118484804Y-100268469D01*
X118493475Y-100289230D01*
X118493475Y-100339300D01*
X118485049Y-100360427D01*
X118464654Y-100369342D01*
X118405425Y-100369342D01*
X118385031Y-100360671D01*
X118376605Y-100340033D01*
X118376605Y-100289230D01*
X118385153Y-100268469D01*
X118406158Y-100259921D01*
G37*
G36*
X118740038Y-100392789D02*
G01*
X118828698Y-100392789D01*
X118828698Y-100048895D01*
X118741504Y-100048895D01*
X118721109Y-100040957D01*
X118712683Y-100021540D01*
X118721109Y-100002245D01*
X118741504Y-99994185D01*
X118886462Y-99994185D01*
X118886462Y-100392789D01*
X118944103Y-100392789D01*
X118944103Y-100272988D01*
X118952529Y-100252838D01*
X118972924Y-100244289D01*
X118993440Y-100252594D01*
X119001866Y-100272622D01*
X119001866Y-100419167D01*
X118993440Y-100439317D01*
X118973046Y-100447500D01*
X118740038Y-100447500D01*
X118719644Y-100439195D01*
X118711217Y-100419534D01*
X118719644Y-100400605D01*
X118740038Y-100392789D01*
G37*
G36*
X119397662Y-100447500D02*
G01*
X119135223Y-100447500D01*
X119135223Y-100248075D01*
X119140594Y-100223174D01*
X119152198Y-100206798D01*
X119173420Y-100192875D01*
X119192864Y-100189579D01*
X119367986Y-100189579D01*
X119367986Y-100048895D01*
X119161968Y-100048895D01*
X119141329Y-100040957D01*
X119133147Y-100021540D01*
X119141329Y-100002245D01*
X119161968Y-99994185D01*
X119368109Y-99994185D01*
X119392971Y-99999440D01*
X119409264Y-100010793D01*
X119423187Y-100031466D01*
X119426483Y-100050483D01*
X119426483Y-100187381D01*
X119421034Y-100211891D01*
X119409264Y-100227803D01*
X119387827Y-100241134D01*
X119368109Y-100244289D01*
X119192864Y-100244289D01*
X119192864Y-100392789D01*
X119397662Y-100392789D01*
X119417812Y-100400849D01*
X119426483Y-100420144D01*
X119417812Y-100439562D01*
X119397662Y-100447500D01*
G37*
G36*
X119673779Y-100259921D02*
G01*
X119732275Y-100259921D01*
X119752425Y-100268469D01*
X119761095Y-100289230D01*
X119761095Y-100339300D01*
X119752669Y-100360427D01*
X119732275Y-100369342D01*
X119673046Y-100369342D01*
X119652652Y-100360671D01*
X119644225Y-100340033D01*
X119644225Y-100289230D01*
X119652774Y-100268469D01*
X119673779Y-100259921D01*
G37*
G36*
X120242742Y-100447500D02*
G01*
X119980303Y-100447500D01*
X119980303Y-100248075D01*
X119985674Y-100223174D01*
X119997278Y-100206798D01*
X120018500Y-100192875D01*
X120037945Y-100189579D01*
X120213067Y-100189579D01*
X120213067Y-100048895D01*
X120007048Y-100048895D01*
X119986409Y-100040957D01*
X119978227Y-100021540D01*
X119986409Y-100002245D01*
X120007048Y-99994185D01*
X120213189Y-99994185D01*
X120238052Y-99999440D01*
X120254344Y-100010793D01*
X120268267Y-100031466D01*
X120271563Y-100050483D01*
X120271563Y-100187381D01*
X120266115Y-100211891D01*
X120254344Y-100227803D01*
X120232907Y-100241134D01*
X120213189Y-100244289D01*
X120037945Y-100244289D01*
X120037945Y-100392789D01*
X120242742Y-100392789D01*
X120262892Y-100400849D01*
X120271563Y-100420144D01*
X120262892Y-100439562D01*
X120242742Y-100447500D01*
G37*
G36*
X120662069Y-99999954D02*
G01*
X120676273Y-100010549D01*
X120689937Y-100032134D01*
X120692638Y-100049384D01*
X120692638Y-100392301D01*
X120686869Y-100417094D01*
X120676273Y-100431379D01*
X120654575Y-100444839D01*
X120636950Y-100447500D01*
X120457798Y-100447500D01*
X120433738Y-100442399D01*
X120418231Y-100431379D01*
X120404771Y-100409767D01*
X120402185Y-100392789D01*
X120459752Y-100392789D01*
X120635607Y-100392789D01*
X120635607Y-100048895D01*
X120459752Y-100048895D01*
X120459752Y-100392789D01*
X120402185Y-100392789D01*
X120402111Y-100392301D01*
X120402111Y-100049384D01*
X120407923Y-100024853D01*
X120418597Y-100010549D01*
X120440370Y-99996886D01*
X120457798Y-99994185D01*
X120637683Y-99994185D01*
X120662069Y-99999954D01*
G37*
G36*
X121087823Y-100447500D02*
G01*
X120825384Y-100447500D01*
X120825384Y-100248075D01*
X120830755Y-100223174D01*
X120842358Y-100206798D01*
X120863580Y-100192875D01*
X120883025Y-100189579D01*
X121058147Y-100189579D01*
X121058147Y-100048895D01*
X120852128Y-100048895D01*
X120831490Y-100040957D01*
X120823308Y-100021540D01*
X120831490Y-100002245D01*
X120852128Y-99994185D01*
X121058269Y-99994185D01*
X121083132Y-99999440D01*
X121099424Y-100010793D01*
X121113347Y-100031466D01*
X121116643Y-100050483D01*
X121116643Y-100187381D01*
X121111195Y-100211891D01*
X121099424Y-100227803D01*
X121077987Y-100241134D01*
X121058269Y-100244289D01*
X120883025Y-100244289D01*
X120883025Y-100392789D01*
X121087823Y-100392789D01*
X121107973Y-100400849D01*
X121116643Y-100420144D01*
X121107973Y-100439562D01*
X121087823Y-100447500D01*
G37*
G36*
X121437090Y-100418801D02*
G01*
X121437090Y-100299000D01*
X121263311Y-100299000D01*
X121263311Y-100023494D01*
X121271982Y-100002855D01*
X121292864Y-99994185D01*
X121313014Y-100002978D01*
X121321685Y-100023860D01*
X121321685Y-100244289D01*
X121437090Y-100244289D01*
X121437090Y-100071366D01*
X121445516Y-100050116D01*
X121465910Y-100041079D01*
X121486427Y-100050116D01*
X121494853Y-100071366D01*
X121494853Y-100244289D01*
X121515247Y-100252349D01*
X121523674Y-100271645D01*
X121515247Y-100291062D01*
X121494853Y-100299000D01*
X121494853Y-100418923D01*
X121486183Y-100439195D01*
X121465910Y-100447500D01*
X121445516Y-100439195D01*
X121437090Y-100418801D01*
G37*
X150463188Y-79456119D02*
X150415569Y-79432309D01*
X150415569Y-79432309D02*
X150344140Y-79432309D01*
X150344140Y-79432309D02*
X150272712Y-79456119D01*
X150272712Y-79456119D02*
X150225093Y-79503738D01*
X150225093Y-79503738D02*
X150201283Y-79551357D01*
X150201283Y-79551357D02*
X150177474Y-79646595D01*
X150177474Y-79646595D02*
X150177474Y-79718023D01*
X150177474Y-79718023D02*
X150201283Y-79813261D01*
X150201283Y-79813261D02*
X150225093Y-79860880D01*
X150225093Y-79860880D02*
X150272712Y-79908500D01*
X150272712Y-79908500D02*
X150344140Y-79932309D01*
X150344140Y-79932309D02*
X150391759Y-79932309D01*
X150391759Y-79932309D02*
X150463188Y-79908500D01*
X150463188Y-79908500D02*
X150486997Y-79884690D01*
X150486997Y-79884690D02*
X150486997Y-79718023D01*
X150486997Y-79718023D02*
X150391759Y-79718023D01*
X150701283Y-79932309D02*
X150701283Y-79432309D01*
X150701283Y-79432309D02*
X150986997Y-79932309D01*
X150986997Y-79932309D02*
X150986997Y-79432309D01*
X151225093Y-79932309D02*
X151225093Y-79432309D01*
X151225093Y-79432309D02*
X151344141Y-79432309D01*
X151344141Y-79432309D02*
X151415569Y-79456119D01*
X151415569Y-79456119D02*
X151463188Y-79503738D01*
X151463188Y-79503738D02*
X151486998Y-79551357D01*
X151486998Y-79551357D02*
X151510807Y-79646595D01*
X151510807Y-79646595D02*
X151510807Y-79718023D01*
X151510807Y-79718023D02*
X151486998Y-79813261D01*
X151486998Y-79813261D02*
X151463188Y-79860880D01*
X151463188Y-79860880D02*
X151415569Y-79908500D01*
X151415569Y-79908500D02*
X151344141Y-79932309D01*
X151344141Y-79932309D02*
X151225093Y-79932309D01*
X150748903Y-82432309D02*
X150748903Y-81932309D01*
X150748903Y-81932309D02*
X150867951Y-81932309D01*
X150867951Y-81932309D02*
X150939379Y-81956119D01*
X150939379Y-81956119D02*
X150986998Y-82003738D01*
X150986998Y-82003738D02*
X151010808Y-82051357D01*
X151010808Y-82051357D02*
X151034617Y-82146595D01*
X151034617Y-82146595D02*
X151034617Y-82218023D01*
X151034617Y-82218023D02*
X151010808Y-82313261D01*
X151010808Y-82313261D02*
X150986998Y-82360880D01*
X150986998Y-82360880D02*
X150939379Y-82408500D01*
X150939379Y-82408500D02*
X150867951Y-82432309D01*
X150867951Y-82432309D02*
X150748903Y-82432309D01*
X151510808Y-82432309D02*
X151225094Y-82432309D01*
X151367951Y-82432309D02*
X151367951Y-81932309D01*
X151367951Y-81932309D02*
X151320332Y-82003738D01*
X151320332Y-82003738D02*
X151272713Y-82051357D01*
X151272713Y-82051357D02*
X151225094Y-82075166D01*
X150748903Y-88732309D02*
X150748903Y-88232309D01*
X150748903Y-88232309D02*
X150867951Y-88232309D01*
X150867951Y-88232309D02*
X150939379Y-88256119D01*
X150939379Y-88256119D02*
X150986998Y-88303738D01*
X150986998Y-88303738D02*
X151010808Y-88351357D01*
X151010808Y-88351357D02*
X151034617Y-88446595D01*
X151034617Y-88446595D02*
X151034617Y-88518023D01*
X151034617Y-88518023D02*
X151010808Y-88613261D01*
X151010808Y-88613261D02*
X150986998Y-88660880D01*
X150986998Y-88660880D02*
X150939379Y-88708500D01*
X150939379Y-88708500D02*
X150867951Y-88732309D01*
X150867951Y-88732309D02*
X150748903Y-88732309D01*
X151225094Y-88279928D02*
X151248903Y-88256119D01*
X151248903Y-88256119D02*
X151296522Y-88232309D01*
X151296522Y-88232309D02*
X151415570Y-88232309D01*
X151415570Y-88232309D02*
X151463189Y-88256119D01*
X151463189Y-88256119D02*
X151486998Y-88279928D01*
X151486998Y-88279928D02*
X151510808Y-88327547D01*
X151510808Y-88327547D02*
X151510808Y-88375166D01*
X151510808Y-88375166D02*
X151486998Y-88446595D01*
X151486998Y-88446595D02*
X151201284Y-88732309D01*
X151201284Y-88732309D02*
X151510808Y-88732309D01*
X150463188Y-85856119D02*
X150415569Y-85832309D01*
X150415569Y-85832309D02*
X150344140Y-85832309D01*
X150344140Y-85832309D02*
X150272712Y-85856119D01*
X150272712Y-85856119D02*
X150225093Y-85903738D01*
X150225093Y-85903738D02*
X150201283Y-85951357D01*
X150201283Y-85951357D02*
X150177474Y-86046595D01*
X150177474Y-86046595D02*
X150177474Y-86118023D01*
X150177474Y-86118023D02*
X150201283Y-86213261D01*
X150201283Y-86213261D02*
X150225093Y-86260880D01*
X150225093Y-86260880D02*
X150272712Y-86308500D01*
X150272712Y-86308500D02*
X150344140Y-86332309D01*
X150344140Y-86332309D02*
X150391759Y-86332309D01*
X150391759Y-86332309D02*
X150463188Y-86308500D01*
X150463188Y-86308500D02*
X150486997Y-86284690D01*
X150486997Y-86284690D02*
X150486997Y-86118023D01*
X150486997Y-86118023D02*
X150391759Y-86118023D01*
X150701283Y-86332309D02*
X150701283Y-85832309D01*
X150701283Y-85832309D02*
X150986997Y-86332309D01*
X150986997Y-86332309D02*
X150986997Y-85832309D01*
X151225093Y-86332309D02*
X151225093Y-85832309D01*
X151225093Y-85832309D02*
X151344141Y-85832309D01*
X151344141Y-85832309D02*
X151415569Y-85856119D01*
X151415569Y-85856119D02*
X151463188Y-85903738D01*
X151463188Y-85903738D02*
X151486998Y-85951357D01*
X151486998Y-85951357D02*
X151510807Y-86046595D01*
X151510807Y-86046595D02*
X151510807Y-86118023D01*
X151510807Y-86118023D02*
X151486998Y-86213261D01*
X151486998Y-86213261D02*
X151463188Y-86260880D01*
X151463188Y-86260880D02*
X151415569Y-86308500D01*
X151415569Y-86308500D02*
X151344141Y-86332309D01*
X151344141Y-86332309D02*
X151225093Y-86332309D01*
X150986998Y-92732309D02*
X150986998Y-92232309D01*
X150986998Y-92232309D02*
X151106046Y-92232309D01*
X151106046Y-92232309D02*
X151177474Y-92256119D01*
X151177474Y-92256119D02*
X151225093Y-92303738D01*
X151225093Y-92303738D02*
X151248903Y-92351357D01*
X151248903Y-92351357D02*
X151272712Y-92446595D01*
X151272712Y-92446595D02*
X151272712Y-92518023D01*
X151272712Y-92518023D02*
X151248903Y-92613261D01*
X151248903Y-92613261D02*
X151225093Y-92660880D01*
X151225093Y-92660880D02*
X151177474Y-92708500D01*
X151177474Y-92708500D02*
X151106046Y-92732309D01*
X151106046Y-92732309D02*
X150986998Y-92732309D01*
X151486998Y-92732309D02*
X151486998Y-92232309D01*
X151058427Y-94632309D02*
X150820332Y-94632309D01*
X150820332Y-94632309D02*
X150796523Y-94870404D01*
X150796523Y-94870404D02*
X150820332Y-94846595D01*
X150820332Y-94846595D02*
X150867951Y-94822785D01*
X150867951Y-94822785D02*
X150986999Y-94822785D01*
X150986999Y-94822785D02*
X151034618Y-94846595D01*
X151034618Y-94846595D02*
X151058427Y-94870404D01*
X151058427Y-94870404D02*
X151082237Y-94918023D01*
X151082237Y-94918023D02*
X151082237Y-95037071D01*
X151082237Y-95037071D02*
X151058427Y-95084690D01*
X151058427Y-95084690D02*
X151034618Y-95108500D01*
X151034618Y-95108500D02*
X150986999Y-95132309D01*
X150986999Y-95132309D02*
X150867951Y-95132309D01*
X150867951Y-95132309D02*
X150820332Y-95108500D01*
X150820332Y-95108500D02*
X150796523Y-95084690D01*
X151225094Y-94632309D02*
X151391760Y-95132309D01*
X151391760Y-95132309D02*
X151558427Y-94632309D01*
X150463188Y-97256119D02*
X150415569Y-97232309D01*
X150415569Y-97232309D02*
X150344140Y-97232309D01*
X150344140Y-97232309D02*
X150272712Y-97256119D01*
X150272712Y-97256119D02*
X150225093Y-97303738D01*
X150225093Y-97303738D02*
X150201283Y-97351357D01*
X150201283Y-97351357D02*
X150177474Y-97446595D01*
X150177474Y-97446595D02*
X150177474Y-97518023D01*
X150177474Y-97518023D02*
X150201283Y-97613261D01*
X150201283Y-97613261D02*
X150225093Y-97660880D01*
X150225093Y-97660880D02*
X150272712Y-97708500D01*
X150272712Y-97708500D02*
X150344140Y-97732309D01*
X150344140Y-97732309D02*
X150391759Y-97732309D01*
X150391759Y-97732309D02*
X150463188Y-97708500D01*
X150463188Y-97708500D02*
X150486997Y-97684690D01*
X150486997Y-97684690D02*
X150486997Y-97518023D01*
X150486997Y-97518023D02*
X150391759Y-97518023D01*
X150701283Y-97732309D02*
X150701283Y-97232309D01*
X150701283Y-97232309D02*
X150986997Y-97732309D01*
X150986997Y-97732309D02*
X150986997Y-97232309D01*
X151225093Y-97732309D02*
X151225093Y-97232309D01*
X151225093Y-97232309D02*
X151344141Y-97232309D01*
X151344141Y-97232309D02*
X151415569Y-97256119D01*
X151415569Y-97256119D02*
X151463188Y-97303738D01*
X151463188Y-97303738D02*
X151486998Y-97351357D01*
X151486998Y-97351357D02*
X151510807Y-97446595D01*
X151510807Y-97446595D02*
X151510807Y-97518023D01*
X151510807Y-97518023D02*
X151486998Y-97613261D01*
X151486998Y-97613261D02*
X151463188Y-97660880D01*
X151463188Y-97660880D02*
X151415569Y-97708500D01*
X151415569Y-97708500D02*
X151344141Y-97732309D01*
X151344141Y-97732309D02*
X151225093Y-97732309D01*
D11*
X155944357Y-83339285D02*
X155980071Y-83232142D01*
X155980071Y-83232142D02*
X156015785Y-83196428D01*
X156015785Y-83196428D02*
X156087214Y-83160714D01*
X156087214Y-83160714D02*
X156194357Y-83160714D01*
X156194357Y-83160714D02*
X156265785Y-83196428D01*
X156265785Y-83196428D02*
X156301500Y-83232142D01*
X156301500Y-83232142D02*
X156337214Y-83303571D01*
X156337214Y-83303571D02*
X156337214Y-83589285D01*
X156337214Y-83589285D02*
X155587214Y-83589285D01*
X155587214Y-83589285D02*
X155587214Y-83339285D01*
X155587214Y-83339285D02*
X155622928Y-83267857D01*
X155622928Y-83267857D02*
X155658642Y-83232142D01*
X155658642Y-83232142D02*
X155730071Y-83196428D01*
X155730071Y-83196428D02*
X155801500Y-83196428D01*
X155801500Y-83196428D02*
X155872928Y-83232142D01*
X155872928Y-83232142D02*
X155908642Y-83267857D01*
X155908642Y-83267857D02*
X155944357Y-83339285D01*
X155944357Y-83339285D02*
X155944357Y-83589285D01*
X155587214Y-82839285D02*
X156194357Y-82839285D01*
X156194357Y-82839285D02*
X156265785Y-82803571D01*
X156265785Y-82803571D02*
X156301500Y-82767857D01*
X156301500Y-82767857D02*
X156337214Y-82696428D01*
X156337214Y-82696428D02*
X156337214Y-82553571D01*
X156337214Y-82553571D02*
X156301500Y-82482142D01*
X156301500Y-82482142D02*
X156265785Y-82446428D01*
X156265785Y-82446428D02*
X156194357Y-82410714D01*
X156194357Y-82410714D02*
X155587214Y-82410714D01*
X155587214Y-82160714D02*
X155587214Y-81732143D01*
X156337214Y-81946428D02*
X155587214Y-81946428D01*
X155587214Y-81589285D02*
X155587214Y-81160714D01*
X156337214Y-81374999D02*
X155587214Y-81374999D01*
X155587214Y-80767856D02*
X155587214Y-80624999D01*
X155587214Y-80624999D02*
X155622928Y-80553570D01*
X155622928Y-80553570D02*
X155694357Y-80482142D01*
X155694357Y-80482142D02*
X155837214Y-80446427D01*
X155837214Y-80446427D02*
X156087214Y-80446427D01*
X156087214Y-80446427D02*
X156230071Y-80482142D01*
X156230071Y-80482142D02*
X156301500Y-80553570D01*
X156301500Y-80553570D02*
X156337214Y-80624999D01*
X156337214Y-80624999D02*
X156337214Y-80767856D01*
X156337214Y-80767856D02*
X156301500Y-80839285D01*
X156301500Y-80839285D02*
X156230071Y-80910713D01*
X156230071Y-80910713D02*
X156087214Y-80946427D01*
X156087214Y-80946427D02*
X155837214Y-80946427D01*
X155837214Y-80946427D02*
X155694357Y-80910713D01*
X155694357Y-80910713D02*
X155622928Y-80839285D01*
X155622928Y-80839285D02*
X155587214Y-80767856D01*
X156337214Y-80124999D02*
X155587214Y-80124999D01*
X155587214Y-80124999D02*
X156337214Y-79696428D01*
X156337214Y-79696428D02*
X155587214Y-79696428D01*
X156408642Y-79517857D02*
X156408642Y-78946428D01*
X155658642Y-78803570D02*
X155622928Y-78767856D01*
X155622928Y-78767856D02*
X155587214Y-78696428D01*
X155587214Y-78696428D02*
X155587214Y-78517856D01*
X155587214Y-78517856D02*
X155622928Y-78446428D01*
X155622928Y-78446428D02*
X155658642Y-78410713D01*
X155658642Y-78410713D02*
X155730071Y-78374999D01*
X155730071Y-78374999D02*
X155801500Y-78374999D01*
X155801500Y-78374999D02*
X155908642Y-78410713D01*
X155908642Y-78410713D02*
X156337214Y-78839285D01*
X156337214Y-78839285D02*
X156337214Y-78374999D01*
D12*
X142293095Y-105064819D02*
X142293095Y-105874342D01*
X142293095Y-105874342D02*
X142340714Y-105969580D01*
X142340714Y-105969580D02*
X142388333Y-106017200D01*
X142388333Y-106017200D02*
X142483571Y-106064819D01*
X142483571Y-106064819D02*
X142674047Y-106064819D01*
X142674047Y-106064819D02*
X142769285Y-106017200D01*
X142769285Y-106017200D02*
X142816904Y-105969580D01*
X142816904Y-105969580D02*
X142864523Y-105874342D01*
X142864523Y-105874342D02*
X142864523Y-105064819D01*
X143864523Y-106064819D02*
X143293095Y-106064819D01*
X143578809Y-106064819D02*
X143578809Y-105064819D01*
X143578809Y-105064819D02*
X143483571Y-105207676D01*
X143483571Y-105207676D02*
X143388333Y-105302914D01*
X143388333Y-105302914D02*
X143293095Y-105350533D01*
D11*
X155944357Y-89589285D02*
X155980071Y-89482142D01*
X155980071Y-89482142D02*
X156015785Y-89446428D01*
X156015785Y-89446428D02*
X156087214Y-89410714D01*
X156087214Y-89410714D02*
X156194357Y-89410714D01*
X156194357Y-89410714D02*
X156265785Y-89446428D01*
X156265785Y-89446428D02*
X156301500Y-89482142D01*
X156301500Y-89482142D02*
X156337214Y-89553571D01*
X156337214Y-89553571D02*
X156337214Y-89839285D01*
X156337214Y-89839285D02*
X155587214Y-89839285D01*
X155587214Y-89839285D02*
X155587214Y-89589285D01*
X155587214Y-89589285D02*
X155622928Y-89517857D01*
X155622928Y-89517857D02*
X155658642Y-89482142D01*
X155658642Y-89482142D02*
X155730071Y-89446428D01*
X155730071Y-89446428D02*
X155801500Y-89446428D01*
X155801500Y-89446428D02*
X155872928Y-89482142D01*
X155872928Y-89482142D02*
X155908642Y-89517857D01*
X155908642Y-89517857D02*
X155944357Y-89589285D01*
X155944357Y-89589285D02*
X155944357Y-89839285D01*
X155587214Y-89089285D02*
X156194357Y-89089285D01*
X156194357Y-89089285D02*
X156265785Y-89053571D01*
X156265785Y-89053571D02*
X156301500Y-89017857D01*
X156301500Y-89017857D02*
X156337214Y-88946428D01*
X156337214Y-88946428D02*
X156337214Y-88803571D01*
X156337214Y-88803571D02*
X156301500Y-88732142D01*
X156301500Y-88732142D02*
X156265785Y-88696428D01*
X156265785Y-88696428D02*
X156194357Y-88660714D01*
X156194357Y-88660714D02*
X155587214Y-88660714D01*
X155587214Y-88410714D02*
X155587214Y-87982143D01*
X156337214Y-88196428D02*
X155587214Y-88196428D01*
X155587214Y-87839285D02*
X155587214Y-87410714D01*
X156337214Y-87624999D02*
X155587214Y-87624999D01*
X155587214Y-87017856D02*
X155587214Y-86874999D01*
X155587214Y-86874999D02*
X155622928Y-86803570D01*
X155622928Y-86803570D02*
X155694357Y-86732142D01*
X155694357Y-86732142D02*
X155837214Y-86696427D01*
X155837214Y-86696427D02*
X156087214Y-86696427D01*
X156087214Y-86696427D02*
X156230071Y-86732142D01*
X156230071Y-86732142D02*
X156301500Y-86803570D01*
X156301500Y-86803570D02*
X156337214Y-86874999D01*
X156337214Y-86874999D02*
X156337214Y-87017856D01*
X156337214Y-87017856D02*
X156301500Y-87089285D01*
X156301500Y-87089285D02*
X156230071Y-87160713D01*
X156230071Y-87160713D02*
X156087214Y-87196427D01*
X156087214Y-87196427D02*
X155837214Y-87196427D01*
X155837214Y-87196427D02*
X155694357Y-87160713D01*
X155694357Y-87160713D02*
X155622928Y-87089285D01*
X155622928Y-87089285D02*
X155587214Y-87017856D01*
X156337214Y-86374999D02*
X155587214Y-86374999D01*
X155587214Y-86374999D02*
X156337214Y-85946428D01*
X156337214Y-85946428D02*
X155587214Y-85946428D01*
X156408642Y-85767857D02*
X156408642Y-85196428D01*
X156337214Y-84624999D02*
X156337214Y-85053570D01*
X156337214Y-84839285D02*
X155587214Y-84839285D01*
X155587214Y-84839285D02*
X155694357Y-84910713D01*
X155694357Y-84910713D02*
X155765785Y-84982142D01*
X155765785Y-84982142D02*
X155801500Y-85053570D01*
D12*
X156339164Y-99107142D02*
X155589164Y-99107142D01*
X155589164Y-99107142D02*
X156339164Y-98678571D01*
X156339164Y-98678571D02*
X155589164Y-98678571D01*
X155946307Y-98321428D02*
X155946307Y-98071428D01*
X156339164Y-97964285D02*
X156339164Y-98321428D01*
X156339164Y-98321428D02*
X155589164Y-98321428D01*
X155589164Y-98321428D02*
X155589164Y-97964285D01*
X155589164Y-97500000D02*
X155589164Y-97357143D01*
X155589164Y-97357143D02*
X155624878Y-97285714D01*
X155624878Y-97285714D02*
X155696307Y-97214286D01*
X155696307Y-97214286D02*
X155839164Y-97178571D01*
X155839164Y-97178571D02*
X156089164Y-97178571D01*
X156089164Y-97178571D02*
X156232021Y-97214286D01*
X156232021Y-97214286D02*
X156303450Y-97285714D01*
X156303450Y-97285714D02*
X156339164Y-97357143D01*
X156339164Y-97357143D02*
X156339164Y-97500000D01*
X156339164Y-97500000D02*
X156303450Y-97571429D01*
X156303450Y-97571429D02*
X156232021Y-97642857D01*
X156232021Y-97642857D02*
X156089164Y-97678571D01*
X156089164Y-97678571D02*
X155839164Y-97678571D01*
X155839164Y-97678571D02*
X155696307Y-97642857D01*
X155696307Y-97642857D02*
X155624878Y-97571429D01*
X155624878Y-97571429D02*
X155589164Y-97500000D01*
X156339164Y-96857143D02*
X155589164Y-96857143D01*
X155589164Y-96857143D02*
X155589164Y-96571429D01*
X155589164Y-96571429D02*
X155624878Y-96500000D01*
X155624878Y-96500000D02*
X155660592Y-96464286D01*
X155660592Y-96464286D02*
X155732021Y-96428572D01*
X155732021Y-96428572D02*
X155839164Y-96428572D01*
X155839164Y-96428572D02*
X155910592Y-96464286D01*
X155910592Y-96464286D02*
X155946307Y-96500000D01*
X155946307Y-96500000D02*
X155982021Y-96571429D01*
X155982021Y-96571429D02*
X155982021Y-96857143D01*
X156339164Y-96107143D02*
X155589164Y-96107143D01*
X155589164Y-95821429D02*
X156339164Y-95321429D01*
X155589164Y-95321429D02*
X156339164Y-95821429D01*
X155946307Y-95035714D02*
X155946307Y-94785714D01*
X156339164Y-94678571D02*
X156339164Y-95035714D01*
X156339164Y-95035714D02*
X155589164Y-95035714D01*
X155589164Y-95035714D02*
X155589164Y-94678571D01*
X156339164Y-94000000D02*
X156339164Y-94357143D01*
X156339164Y-94357143D02*
X155589164Y-94357143D01*
X156410592Y-93928572D02*
X156410592Y-93357143D01*
X156339164Y-92750000D02*
X155982021Y-93000000D01*
X156339164Y-93178571D02*
X155589164Y-93178571D01*
X155589164Y-93178571D02*
X155589164Y-92892857D01*
X155589164Y-92892857D02*
X155624878Y-92821428D01*
X155624878Y-92821428D02*
X155660592Y-92785714D01*
X155660592Y-92785714D02*
X155732021Y-92750000D01*
X155732021Y-92750000D02*
X155839164Y-92750000D01*
X155839164Y-92750000D02*
X155910592Y-92785714D01*
X155910592Y-92785714D02*
X155946307Y-92821428D01*
X155946307Y-92821428D02*
X155982021Y-92892857D01*
X155982021Y-92892857D02*
X155982021Y-93178571D01*
X156339164Y-92428571D02*
X155589164Y-92428571D01*
X156339164Y-92071428D02*
X155589164Y-92071428D01*
X155589164Y-92071428D02*
X156339164Y-91642857D01*
X156339164Y-91642857D02*
X155589164Y-91642857D01*
X155624878Y-90892857D02*
X155589164Y-90964286D01*
X155589164Y-90964286D02*
X155589164Y-91071428D01*
X155589164Y-91071428D02*
X155624878Y-91178571D01*
X155624878Y-91178571D02*
X155696307Y-91250000D01*
X155696307Y-91250000D02*
X155767735Y-91285714D01*
X155767735Y-91285714D02*
X155910592Y-91321428D01*
X155910592Y-91321428D02*
X156017735Y-91321428D01*
X156017735Y-91321428D02*
X156160592Y-91285714D01*
X156160592Y-91285714D02*
X156232021Y-91250000D01*
X156232021Y-91250000D02*
X156303450Y-91178571D01*
X156303450Y-91178571D02*
X156339164Y-91071428D01*
X156339164Y-91071428D02*
X156339164Y-91000000D01*
X156339164Y-91000000D02*
X156303450Y-90892857D01*
X156303450Y-90892857D02*
X156267735Y-90857143D01*
X156267735Y-90857143D02*
X156017735Y-90857143D01*
X156017735Y-90857143D02*
X156017735Y-91000000D01*
D13*
X152145000Y-81020000D02*
X152145000Y-83620000D01*
X152145000Y-81020000D02*
X154805000Y-81020000D01*
X152145000Y-83620000D02*
X154805000Y-83620000D01*
X153475000Y-78420000D02*
X154805000Y-78420000D01*
X154805000Y-78420000D02*
X154805000Y-79750000D01*
X154805000Y-81020000D02*
X154805000Y-83620000D01*
X119555000Y-97830000D02*
X119555000Y-72400000D01*
X119555000Y-97830000D02*
X122095000Y-97830000D01*
X122095000Y-97830000D02*
X122095000Y-104730000D01*
X122095000Y-104730000D02*
X145415000Y-104730000D01*
X143295000Y-70270000D02*
X121685000Y-70270000D01*
X145415000Y-104730000D02*
X145415000Y-72400000D01*
X119555000Y-72400000D02*
G75*
G02*
X121685000Y-70270000I2130002J-2D01*
G01*
X143285000Y-70270000D02*
G75*
G02*
X145415000Y-72400000I0J-2130000D01*
G01*
D12*
X119150000Y-78610000D02*
X118515000Y-79245000D01*
X118515000Y-77975000D01*
X119150000Y-78610000D01*
G36*
X119150000Y-78610000D02*
G01*
X118515000Y-79245000D01*
X118515000Y-77975000D01*
X119150000Y-78610000D01*
G37*
D13*
X152170000Y-87270000D02*
X152170000Y-89870000D01*
X152170000Y-87270000D02*
X154830000Y-87270000D01*
X152170000Y-89870000D02*
X154830000Y-89870000D01*
X153500000Y-84670000D02*
X154830000Y-84670000D01*
X154830000Y-84670000D02*
X154830000Y-86000000D01*
X154830000Y-87270000D02*
X154830000Y-89870000D01*
X154805000Y-96255000D02*
X154805000Y-91115000D01*
X154805000Y-96255000D02*
X152145000Y-96255000D01*
X154805000Y-91115000D02*
X152145000Y-91115000D01*
X153475000Y-98855000D02*
X152145000Y-98855000D01*
X152145000Y-98855000D02*
X152145000Y-97525000D01*
X152145000Y-96255000D02*
X152145000Y-91115000D01*
M02*
