M48
; DRILL file {KiCad 8.0.7} date 2024-12-04T23:59:12+0100
; FORMAT={3:3/ absolute / metric / suppress leading zeros}
; #@! TF.CreationDate,2024-12-04T23:59:12+01:00
; #@! TF.GenerationSoftware,Kicad,Pcbnew,8.0.7
; #@! TF.FileFunction,MixedPlating,1,2
FMAT,2
METRIC,TZ
; #@! TA.AperFunction,Plated,PTH,ComponentDrill
T1C0.900
; #@! TA.AperFunction,Plated,PTH,ComponentDrill
T2C1.000
%
G90
G05
T1
X121055Y-78610
X121055Y-81150
X121055Y-83690
X121055Y-86230
X121055Y-88770
X121055Y-91310
X121055Y-93850
X121055Y-96390
X143915Y-78610
X143915Y-81150
X143915Y-83690
X143915Y-86230
X143915Y-88770
X143915Y-91310
X143915Y-93850
X143915Y-96390
T2
X153475Y-79750
X153475Y-82290
X153475Y-92445
X153475Y-94985
X153475Y-97525
X153500Y-86000
X153500Y-88540
M30
