G04 #@! TF.GenerationSoftware,KiCad,Pcbnew,8.0.7*
G04 #@! TF.CreationDate,2024-12-04T23:37:30+01:00*
G04 #@! TF.ProjectId,LuminO,4c756d69-6e4f-42e6-9b69-6361645f7063,rev?*
G04 #@! TF.SameCoordinates,Original*
G04 #@! TF.FileFunction,Copper,L1,Top*
G04 #@! TF.FilePolarity,Positive*
%FSLAX46Y46*%
G04 Gerber Fmt 4.6, Leading zero omitted, Abs format (unit mm)*
G04 Created by KiCad (PCBNEW 8.0.7) date 2024-12-04 23:37:30*
%MOMM*%
%LPD*%
G01*
G04 APERTURE LIST*
G04 #@! TA.AperFunction,ComponentPad*
%ADD10R,1.700000X1.700000*%
G04 #@! TD*
G04 #@! TA.AperFunction,ComponentPad*
%ADD11O,1.700000X1.700000*%
G04 #@! TD*
G04 #@! TA.AperFunction,ComponentPad*
%ADD12R,2.000000X2.000000*%
G04 #@! TD*
G04 #@! TA.AperFunction,ComponentPad*
%ADD13O,2.000000X1.600000*%
G04 #@! TD*
G04 #@! TA.AperFunction,Conductor*
%ADD14C,0.200000*%
G04 #@! TD*
G04 APERTURE END LIST*
D10*
X153475000Y-79750000D03*
D11*
X153475000Y-82290000D03*
D12*
X121055000Y-78610000D03*
D13*
X121055000Y-81150000D03*
X121055000Y-83690000D03*
X121055000Y-86230000D03*
X121055000Y-88770000D03*
X121055000Y-91310000D03*
X121055000Y-93850000D03*
X121055000Y-96390000D03*
X143915000Y-96390000D03*
X143915000Y-93850000D03*
X143915000Y-91310000D03*
X143915000Y-88770000D03*
X143915000Y-86230000D03*
X143915000Y-83690000D03*
X143915000Y-81150000D03*
X143915000Y-78610000D03*
D10*
X153500000Y-86000000D03*
D11*
X153500000Y-88540000D03*
D10*
X153475000Y-97525000D03*
D11*
X153475000Y-94985000D03*
X153475000Y-92445000D03*
D14*
X145320000Y-94985000D02*
X143915000Y-96390000D01*
X153475000Y-94985000D02*
X145320000Y-94985000D01*
X147590000Y-92445000D02*
X143915000Y-88770000D01*
X153475000Y-92445000D02*
X147590000Y-92445000D01*
X146225000Y-88540000D02*
X143915000Y-86230000D01*
X153500000Y-88540000D02*
X146225000Y-88540000D01*
X152075000Y-83690000D02*
X143915000Y-83690000D01*
X153475000Y-82290000D02*
X152075000Y-83690000D01*
X143915000Y-88770000D02*
X144435000Y-88250000D01*
G04 #@! TA.AperFunction,Conductor*
G36*
X162442539Y-76520185D02*
G01*
X162488294Y-76572989D01*
X162499500Y-76624500D01*
X162499500Y-100375500D01*
X162479815Y-100442539D01*
X162427011Y-100488294D01*
X162375500Y-100499500D01*
X142124000Y-100499500D01*
X142056961Y-100479815D01*
X142011206Y-100427011D01*
X142000000Y-100375500D01*
X142000000Y-77334000D01*
X142019685Y-77266961D01*
X142072489Y-77221206D01*
X142124000Y-77210000D01*
X143081561Y-77210000D01*
X143148600Y-77229685D01*
X143194355Y-77282489D01*
X143204299Y-77351647D01*
X143175274Y-77415203D01*
X143137856Y-77444485D01*
X143033385Y-77497715D01*
X142867786Y-77618028D01*
X142723028Y-77762786D01*
X142602715Y-77928386D01*
X142509781Y-78110776D01*
X142446522Y-78305465D01*
X142414500Y-78507648D01*
X142414500Y-78712351D01*
X142446522Y-78914534D01*
X142509781Y-79109223D01*
X142602715Y-79291613D01*
X142723028Y-79457213D01*
X142867786Y-79601971D01*
X143022749Y-79714556D01*
X143033390Y-79722287D01*
X143124840Y-79768883D01*
X143126080Y-79769515D01*
X143176876Y-79817490D01*
X143193671Y-79885311D01*
X143171134Y-79951446D01*
X143126080Y-79990485D01*
X143033386Y-80037715D01*
X142867786Y-80158028D01*
X142723028Y-80302786D01*
X142602715Y-80468386D01*
X142509781Y-80650776D01*
X142446522Y-80845465D01*
X142414500Y-81047648D01*
X142414500Y-81252351D01*
X142446522Y-81454534D01*
X142509781Y-81649223D01*
X142573691Y-81774653D01*
X142600026Y-81826337D01*
X142602715Y-81831613D01*
X142723028Y-81997213D01*
X142867786Y-82141971D01*
X143022749Y-82254556D01*
X143033390Y-82262287D01*
X143124840Y-82308883D01*
X143126080Y-82309515D01*
X143176876Y-82357490D01*
X143193671Y-82425311D01*
X143171134Y-82491446D01*
X143126080Y-82530485D01*
X143033386Y-82577715D01*
X142867786Y-82698028D01*
X142723028Y-82842786D01*
X142602715Y-83008386D01*
X142509781Y-83190776D01*
X142446522Y-83385465D01*
X142414500Y-83587648D01*
X142414500Y-83792351D01*
X142446522Y-83994534D01*
X142509781Y-84189223D01*
X142602715Y-84371613D01*
X142723028Y-84537213D01*
X142867786Y-84681971D01*
X143020345Y-84792809D01*
X143033390Y-84802287D01*
X143124840Y-84848883D01*
X143126080Y-84849515D01*
X143176876Y-84897490D01*
X143193671Y-84965311D01*
X143171134Y-85031446D01*
X143126080Y-85070485D01*
X143033386Y-85117715D01*
X142867786Y-85238028D01*
X142723028Y-85382786D01*
X142602715Y-85548386D01*
X142509781Y-85730776D01*
X142446522Y-85925465D01*
X142414500Y-86127648D01*
X142414500Y-86332351D01*
X142446522Y-86534534D01*
X142509781Y-86729223D01*
X142558987Y-86825794D01*
X142595690Y-86897827D01*
X142602715Y-86911613D01*
X142723028Y-87077213D01*
X142867786Y-87221971D01*
X143022749Y-87334556D01*
X143033390Y-87342287D01*
X143124840Y-87388883D01*
X143126080Y-87389515D01*
X143176876Y-87437490D01*
X143193671Y-87505311D01*
X143171134Y-87571446D01*
X143126080Y-87610485D01*
X143033386Y-87657715D01*
X142867786Y-87778028D01*
X142723028Y-87922786D01*
X142602715Y-88088386D01*
X142509781Y-88270776D01*
X142446522Y-88465465D01*
X142414500Y-88667648D01*
X142414500Y-88872351D01*
X142446522Y-89074534D01*
X142509781Y-89269223D01*
X142558987Y-89365794D01*
X142582225Y-89411401D01*
X142602715Y-89451613D01*
X142723028Y-89617213D01*
X142867786Y-89761971D01*
X143022749Y-89874556D01*
X143033390Y-89882287D01*
X143124840Y-89928883D01*
X143126080Y-89929515D01*
X143176876Y-89977490D01*
X143193671Y-90045311D01*
X143171134Y-90111446D01*
X143126080Y-90150485D01*
X143033386Y-90197715D01*
X142867786Y-90318028D01*
X142723028Y-90462786D01*
X142602715Y-90628386D01*
X142509781Y-90810776D01*
X142446522Y-91005465D01*
X142414500Y-91207648D01*
X142414500Y-91412351D01*
X142446522Y-91614534D01*
X142509781Y-91809223D01*
X142573691Y-91934653D01*
X142597482Y-91981344D01*
X142602715Y-91991613D01*
X142723028Y-92157213D01*
X142867786Y-92301971D01*
X143022749Y-92414556D01*
X143033390Y-92422287D01*
X143077965Y-92444999D01*
X143126629Y-92469795D01*
X143177425Y-92517770D01*
X143194220Y-92585591D01*
X143171682Y-92651726D01*
X143126629Y-92690765D01*
X143033650Y-92738140D01*
X142868105Y-92858417D01*
X142868104Y-92858417D01*
X142723417Y-93003104D01*
X142723417Y-93003105D01*
X142603140Y-93168650D01*
X142510244Y-93350970D01*
X142447009Y-93545586D01*
X142438391Y-93600000D01*
X143539722Y-93600000D01*
X143495667Y-93676306D01*
X143465000Y-93790756D01*
X143465000Y-93909244D01*
X143495667Y-94023694D01*
X143539722Y-94100000D01*
X142438391Y-94100000D01*
X142447009Y-94154413D01*
X142510244Y-94349029D01*
X142603140Y-94531349D01*
X142723417Y-94696894D01*
X142723417Y-94696895D01*
X142868104Y-94841582D01*
X143033652Y-94961861D01*
X143126628Y-95009234D01*
X143177425Y-95057208D01*
X143194220Y-95125029D01*
X143171683Y-95191164D01*
X143126630Y-95230203D01*
X143033388Y-95277713D01*
X142867786Y-95398028D01*
X142723028Y-95542786D01*
X142602715Y-95708386D01*
X142509781Y-95890776D01*
X142446522Y-96085465D01*
X142414500Y-96287648D01*
X142414500Y-96492351D01*
X142446522Y-96694534D01*
X142509781Y-96889223D01*
X142602715Y-97071613D01*
X142723028Y-97237213D01*
X142867786Y-97381971D01*
X143022749Y-97494556D01*
X143033390Y-97502287D01*
X143149607Y-97561503D01*
X143215776Y-97595218D01*
X143215778Y-97595218D01*
X143215781Y-97595220D01*
X143320137Y-97629127D01*
X143410465Y-97658477D01*
X143511557Y-97674488D01*
X143612648Y-97690500D01*
X143612649Y-97690500D01*
X144217351Y-97690500D01*
X144217352Y-97690500D01*
X144419534Y-97658477D01*
X144614219Y-97595220D01*
X144796610Y-97502287D01*
X144889590Y-97434732D01*
X144962213Y-97381971D01*
X144962215Y-97381968D01*
X144962219Y-97381966D01*
X145106966Y-97237219D01*
X145106968Y-97237215D01*
X145106971Y-97237213D01*
X145188569Y-97124901D01*
X145227287Y-97071610D01*
X145320220Y-96889219D01*
X145383477Y-96694534D01*
X145415500Y-96492352D01*
X145415500Y-96287648D01*
X145383477Y-96085466D01*
X145383476Y-96085462D01*
X145383476Y-96085461D01*
X145329780Y-95920203D01*
X145327785Y-95850362D01*
X145360030Y-95794204D01*
X145445845Y-95708390D01*
X145532416Y-95621819D01*
X145593739Y-95588334D01*
X145620097Y-95585500D01*
X152185909Y-95585500D01*
X152252948Y-95605185D01*
X152298292Y-95657097D01*
X152300965Y-95662830D01*
X152436501Y-95856396D01*
X152436506Y-95856402D01*
X152558818Y-95978714D01*
X152592303Y-96040037D01*
X152587319Y-96109729D01*
X152545447Y-96165662D01*
X152514471Y-96182577D01*
X152382912Y-96231646D01*
X152382906Y-96231649D01*
X152267812Y-96317809D01*
X152267809Y-96317812D01*
X152181649Y-96432906D01*
X152181645Y-96432913D01*
X152131403Y-96567620D01*
X152131401Y-96567627D01*
X152125000Y-96627155D01*
X152125000Y-97275000D01*
X153041988Y-97275000D01*
X153009075Y-97332007D01*
X152975000Y-97459174D01*
X152975000Y-97590826D01*
X153009075Y-97717993D01*
X153041988Y-97775000D01*
X152125000Y-97775000D01*
X152125000Y-98422844D01*
X152131401Y-98482372D01*
X152131403Y-98482379D01*
X152181645Y-98617086D01*
X152181649Y-98617093D01*
X152267809Y-98732187D01*
X152267812Y-98732190D01*
X152382906Y-98818350D01*
X152382913Y-98818354D01*
X152517620Y-98868596D01*
X152517627Y-98868598D01*
X152577155Y-98874999D01*
X152577172Y-98875000D01*
X153225000Y-98875000D01*
X153225000Y-97958012D01*
X153282007Y-97990925D01*
X153409174Y-98025000D01*
X153540826Y-98025000D01*
X153667993Y-97990925D01*
X153725000Y-97958012D01*
X153725000Y-98875000D01*
X154372828Y-98875000D01*
X154372844Y-98874999D01*
X154432372Y-98868598D01*
X154432379Y-98868596D01*
X154567086Y-98818354D01*
X154567093Y-98818350D01*
X154682187Y-98732190D01*
X154682190Y-98732187D01*
X154768350Y-98617093D01*
X154768354Y-98617086D01*
X154818596Y-98482379D01*
X154818598Y-98482372D01*
X154824999Y-98422844D01*
X154825000Y-98422827D01*
X154825000Y-97775000D01*
X153908012Y-97775000D01*
X153940925Y-97717993D01*
X153975000Y-97590826D01*
X153975000Y-97459174D01*
X153940925Y-97332007D01*
X153908012Y-97275000D01*
X154825000Y-97275000D01*
X154825000Y-96627172D01*
X154824999Y-96627155D01*
X154818598Y-96567627D01*
X154818596Y-96567620D01*
X154768354Y-96432913D01*
X154768350Y-96432906D01*
X154682190Y-96317812D01*
X154682187Y-96317809D01*
X154567093Y-96231649D01*
X154567088Y-96231646D01*
X154435528Y-96182577D01*
X154379595Y-96140705D01*
X154355178Y-96075241D01*
X154370030Y-96006968D01*
X154391175Y-95978720D01*
X154513495Y-95856401D01*
X154649035Y-95662830D01*
X154748903Y-95448663D01*
X154810063Y-95220408D01*
X154830659Y-94985000D01*
X154810063Y-94749592D01*
X154748903Y-94521337D01*
X154649035Y-94307171D01*
X154649034Y-94307169D01*
X154513494Y-94113597D01*
X154346402Y-93946506D01*
X154346396Y-93946501D01*
X154160842Y-93816575D01*
X154117217Y-93761998D01*
X154110023Y-93692500D01*
X154141546Y-93630145D01*
X154160842Y-93613425D01*
X154183026Y-93597891D01*
X154346401Y-93483495D01*
X154513495Y-93316401D01*
X154649035Y-93122830D01*
X154748903Y-92908663D01*
X154810063Y-92680408D01*
X154830659Y-92445000D01*
X154810063Y-92209592D01*
X154763626Y-92036285D01*
X154748905Y-91981344D01*
X154748904Y-91981343D01*
X154748903Y-91981337D01*
X154649035Y-91767171D01*
X154649034Y-91767169D01*
X154513494Y-91573597D01*
X154346402Y-91406506D01*
X154346395Y-91406501D01*
X154152834Y-91270967D01*
X154152830Y-91270965D01*
X154152828Y-91270964D01*
X153938663Y-91171097D01*
X153938659Y-91171096D01*
X153938655Y-91171094D01*
X153710413Y-91109938D01*
X153710403Y-91109936D01*
X153475001Y-91089341D01*
X153474999Y-91089341D01*
X153239596Y-91109936D01*
X153239586Y-91109938D01*
X153011344Y-91171094D01*
X153011335Y-91171098D01*
X152797171Y-91270964D01*
X152797169Y-91270965D01*
X152603597Y-91406505D01*
X152436506Y-91573596D01*
X152300965Y-91767170D01*
X152300962Y-91767175D01*
X152298289Y-91772909D01*
X152252115Y-91825346D01*
X152185909Y-91844500D01*
X147890097Y-91844500D01*
X147823058Y-91824815D01*
X147802416Y-91808181D01*
X145360029Y-89365794D01*
X145326544Y-89304471D01*
X145329778Y-89239800D01*
X145383477Y-89074534D01*
X145415500Y-88872352D01*
X145415500Y-88872334D01*
X145415745Y-88869229D01*
X145416171Y-88868109D01*
X145416262Y-88867540D01*
X145416381Y-88867558D01*
X145440630Y-88803941D01*
X145496862Y-88762471D01*
X145566587Y-88757985D01*
X145627044Y-88791279D01*
X145740139Y-88904374D01*
X145740149Y-88904385D01*
X145744479Y-88908715D01*
X145744480Y-88908716D01*
X145856284Y-89020520D01*
X145856286Y-89020521D01*
X145856290Y-89020524D01*
X145949840Y-89074534D01*
X145993216Y-89099577D01*
X146105019Y-89129534D01*
X146145942Y-89140500D01*
X146145943Y-89140500D01*
X152210909Y-89140500D01*
X152277948Y-89160185D01*
X152323292Y-89212097D01*
X152325965Y-89217830D01*
X152461505Y-89411401D01*
X152628599Y-89578495D01*
X152683894Y-89617213D01*
X152822165Y-89714032D01*
X152822167Y-89714033D01*
X152822170Y-89714035D01*
X153036337Y-89813903D01*
X153264592Y-89875063D01*
X153452918Y-89891539D01*
X153499999Y-89895659D01*
X153500000Y-89895659D01*
X153500001Y-89895659D01*
X153539234Y-89892226D01*
X153735408Y-89875063D01*
X153963663Y-89813903D01*
X154177830Y-89714035D01*
X154371401Y-89578495D01*
X154538495Y-89411401D01*
X154674035Y-89217830D01*
X154773903Y-89003663D01*
X154835063Y-88775408D01*
X154855659Y-88540000D01*
X154835063Y-88304592D01*
X154777133Y-88088390D01*
X154773905Y-88076344D01*
X154773904Y-88076343D01*
X154773903Y-88076337D01*
X154674035Y-87862171D01*
X154674034Y-87862169D01*
X154538496Y-87668600D01*
X154480381Y-87610485D01*
X154416179Y-87546283D01*
X154382696Y-87484963D01*
X154387680Y-87415271D01*
X154429551Y-87359337D01*
X154460529Y-87342422D01*
X154592086Y-87293354D01*
X154592093Y-87293350D01*
X154707187Y-87207190D01*
X154707190Y-87207187D01*
X154793350Y-87092093D01*
X154793354Y-87092086D01*
X154843596Y-86957379D01*
X154843598Y-86957372D01*
X154849999Y-86897844D01*
X154850000Y-86897827D01*
X154850000Y-86250000D01*
X153933012Y-86250000D01*
X153965925Y-86192993D01*
X154000000Y-86065826D01*
X154000000Y-85934174D01*
X153965925Y-85807007D01*
X153933012Y-85750000D01*
X154850000Y-85750000D01*
X154850000Y-85102172D01*
X154849999Y-85102155D01*
X154843598Y-85042627D01*
X154843596Y-85042620D01*
X154793354Y-84907913D01*
X154793350Y-84907906D01*
X154707190Y-84792812D01*
X154707187Y-84792809D01*
X154592093Y-84706649D01*
X154592086Y-84706645D01*
X154457379Y-84656403D01*
X154457372Y-84656401D01*
X154397844Y-84650000D01*
X153750000Y-84650000D01*
X153750000Y-85566988D01*
X153692993Y-85534075D01*
X153565826Y-85500000D01*
X153434174Y-85500000D01*
X153307007Y-85534075D01*
X153250000Y-85566988D01*
X153250000Y-84650000D01*
X152602155Y-84650000D01*
X152542627Y-84656401D01*
X152542620Y-84656403D01*
X152407913Y-84706645D01*
X152407906Y-84706649D01*
X152292812Y-84792809D01*
X152292809Y-84792812D01*
X152206649Y-84907906D01*
X152206645Y-84907913D01*
X152156403Y-85042620D01*
X152156401Y-85042627D01*
X152150000Y-85102155D01*
X152150000Y-85750000D01*
X153066988Y-85750000D01*
X153034075Y-85807007D01*
X153000000Y-85934174D01*
X153000000Y-86065826D01*
X153034075Y-86192993D01*
X153066988Y-86250000D01*
X152150000Y-86250000D01*
X152150000Y-86897844D01*
X152156401Y-86957372D01*
X152156403Y-86957379D01*
X152206645Y-87092086D01*
X152206649Y-87092093D01*
X152292809Y-87207187D01*
X152292812Y-87207190D01*
X152407906Y-87293350D01*
X152407913Y-87293354D01*
X152539470Y-87342421D01*
X152595403Y-87384292D01*
X152619821Y-87449756D01*
X152604970Y-87518029D01*
X152583819Y-87546284D01*
X152461503Y-87668600D01*
X152325965Y-87862170D01*
X152325962Y-87862175D01*
X152323289Y-87867909D01*
X152277115Y-87920346D01*
X152210909Y-87939500D01*
X146525097Y-87939500D01*
X146458058Y-87919815D01*
X146437416Y-87903181D01*
X145360029Y-86825794D01*
X145326544Y-86764471D01*
X145329778Y-86699800D01*
X145383477Y-86534534D01*
X145415500Y-86332352D01*
X145415500Y-86127648D01*
X145383477Y-85925466D01*
X145320220Y-85730781D01*
X145320218Y-85730778D01*
X145320218Y-85730776D01*
X145253533Y-85599901D01*
X145227287Y-85548390D01*
X145192130Y-85500000D01*
X145106971Y-85382786D01*
X144962213Y-85238028D01*
X144796614Y-85117715D01*
X144766109Y-85102172D01*
X144703917Y-85070483D01*
X144653123Y-85022511D01*
X144636328Y-84954690D01*
X144658865Y-84888555D01*
X144703917Y-84849516D01*
X144796610Y-84802287D01*
X144817770Y-84786913D01*
X144962213Y-84681971D01*
X144962215Y-84681968D01*
X144962219Y-84681966D01*
X145106966Y-84537219D01*
X145106968Y-84537215D01*
X145106971Y-84537213D01*
X145227284Y-84371614D01*
X145227285Y-84371613D01*
X145227287Y-84371610D01*
X145234117Y-84358204D01*
X145282091Y-84307409D01*
X145344602Y-84290500D01*
X151988331Y-84290500D01*
X151988347Y-84290501D01*
X151995943Y-84290501D01*
X152154054Y-84290501D01*
X152154057Y-84290501D01*
X152306785Y-84249577D01*
X152356904Y-84220639D01*
X152443716Y-84170520D01*
X152555520Y-84058716D01*
X152555520Y-84058714D01*
X152565728Y-84048507D01*
X152565730Y-84048504D01*
X152991470Y-83622763D01*
X153052791Y-83589280D01*
X153111238Y-83590670D01*
X153239592Y-83625063D01*
X153427918Y-83641539D01*
X153474999Y-83645659D01*
X153475000Y-83645659D01*
X153475001Y-83645659D01*
X153514234Y-83642226D01*
X153710408Y-83625063D01*
X153938663Y-83563903D01*
X154152830Y-83464035D01*
X154346401Y-83328495D01*
X154513495Y-83161401D01*
X154649035Y-82967830D01*
X154748903Y-82753663D01*
X154810063Y-82525408D01*
X154830659Y-82290000D01*
X154810063Y-82054592D01*
X154748903Y-81826337D01*
X154649035Y-81612171D01*
X154513495Y-81418599D01*
X154391179Y-81296283D01*
X154357696Y-81234963D01*
X154362680Y-81165271D01*
X154404551Y-81109337D01*
X154435529Y-81092422D01*
X154567086Y-81043354D01*
X154567093Y-81043350D01*
X154682187Y-80957190D01*
X154682190Y-80957187D01*
X154768350Y-80842093D01*
X154768354Y-80842086D01*
X154818596Y-80707379D01*
X154818598Y-80707372D01*
X154824999Y-80647844D01*
X154825000Y-80647827D01*
X154825000Y-80000000D01*
X153908012Y-80000000D01*
X153940925Y-79942993D01*
X153975000Y-79815826D01*
X153975000Y-79684174D01*
X153940925Y-79557007D01*
X153908012Y-79500000D01*
X154825000Y-79500000D01*
X154825000Y-78852172D01*
X154824999Y-78852155D01*
X154818598Y-78792627D01*
X154818596Y-78792620D01*
X154768354Y-78657913D01*
X154768350Y-78657906D01*
X154682190Y-78542812D01*
X154682187Y-78542809D01*
X154567093Y-78456649D01*
X154567086Y-78456645D01*
X154432379Y-78406403D01*
X154432372Y-78406401D01*
X154372844Y-78400000D01*
X153725000Y-78400000D01*
X153725000Y-79316988D01*
X153667993Y-79284075D01*
X153540826Y-79250000D01*
X153409174Y-79250000D01*
X153282007Y-79284075D01*
X153225000Y-79316988D01*
X153225000Y-78400000D01*
X152577155Y-78400000D01*
X152517627Y-78406401D01*
X152517620Y-78406403D01*
X152382913Y-78456645D01*
X152382906Y-78456649D01*
X152267812Y-78542809D01*
X152267809Y-78542812D01*
X152181649Y-78657906D01*
X152181645Y-78657913D01*
X152131403Y-78792620D01*
X152131401Y-78792627D01*
X152125000Y-78852155D01*
X152125000Y-79500000D01*
X153041988Y-79500000D01*
X153009075Y-79557007D01*
X152975000Y-79684174D01*
X152975000Y-79815826D01*
X153009075Y-79942993D01*
X153041988Y-80000000D01*
X152125000Y-80000000D01*
X152125000Y-80647844D01*
X152131401Y-80707372D01*
X152131403Y-80707379D01*
X152181645Y-80842086D01*
X152181649Y-80842093D01*
X152267809Y-80957187D01*
X152267812Y-80957190D01*
X152382906Y-81043350D01*
X152382913Y-81043354D01*
X152514470Y-81092421D01*
X152570403Y-81134292D01*
X152594821Y-81199756D01*
X152579970Y-81268029D01*
X152558819Y-81296284D01*
X152436503Y-81418600D01*
X152300965Y-81612169D01*
X152300964Y-81612171D01*
X152201098Y-81826335D01*
X152201094Y-81826344D01*
X152139938Y-82054586D01*
X152139936Y-82054596D01*
X152119341Y-82289999D01*
X152119341Y-82290000D01*
X152139936Y-82525403D01*
X152139938Y-82525413D01*
X152174327Y-82653756D01*
X152172664Y-82723606D01*
X152142233Y-82773530D01*
X151862582Y-83053182D01*
X151801262Y-83086666D01*
X151774903Y-83089500D01*
X145344602Y-83089500D01*
X145277563Y-83069815D01*
X145234117Y-83021795D01*
X145227284Y-83008385D01*
X145106971Y-82842786D01*
X144962213Y-82698028D01*
X144796614Y-82577715D01*
X144790006Y-82574348D01*
X144703917Y-82530483D01*
X144653123Y-82482511D01*
X144636328Y-82414690D01*
X144658865Y-82348555D01*
X144703917Y-82309516D01*
X144796610Y-82262287D01*
X144817770Y-82246913D01*
X144962213Y-82141971D01*
X144962215Y-82141968D01*
X144962219Y-82141966D01*
X145106966Y-81997219D01*
X145106968Y-81997215D01*
X145106971Y-81997213D01*
X145159732Y-81924590D01*
X145227287Y-81831610D01*
X145320220Y-81649219D01*
X145383477Y-81454534D01*
X145415500Y-81252352D01*
X145415500Y-81047648D01*
X145383477Y-80845466D01*
X145320220Y-80650781D01*
X145320218Y-80650778D01*
X145320218Y-80650776D01*
X145286503Y-80584607D01*
X145227287Y-80468390D01*
X145219556Y-80457749D01*
X145106971Y-80302786D01*
X144962213Y-80158028D01*
X144796614Y-80037715D01*
X144790006Y-80034348D01*
X144703917Y-79990483D01*
X144653123Y-79942511D01*
X144636328Y-79874690D01*
X144658865Y-79808555D01*
X144703917Y-79769516D01*
X144796610Y-79722287D01*
X144817770Y-79706913D01*
X144962213Y-79601971D01*
X144962215Y-79601968D01*
X144962219Y-79601966D01*
X145106966Y-79457219D01*
X145106968Y-79457215D01*
X145106971Y-79457213D01*
X145184936Y-79349901D01*
X145227287Y-79291610D01*
X145320220Y-79109219D01*
X145383477Y-78914534D01*
X145415500Y-78712352D01*
X145415500Y-78507648D01*
X145383477Y-78305466D01*
X145320220Y-78110781D01*
X145320218Y-78110778D01*
X145320218Y-78110776D01*
X145286503Y-78044607D01*
X145227287Y-77928390D01*
X145219556Y-77917749D01*
X145106971Y-77762786D01*
X144962213Y-77618028D01*
X144796614Y-77497715D01*
X144692144Y-77444485D01*
X144641348Y-77396510D01*
X144624553Y-77328689D01*
X144647090Y-77262555D01*
X144701805Y-77219103D01*
X144748439Y-77210000D01*
X145305000Y-77210000D01*
X145305000Y-76624500D01*
X145324685Y-76557461D01*
X145377489Y-76511706D01*
X145429000Y-76500500D01*
X162375500Y-76500500D01*
X162442539Y-76520185D01*
G37*
G04 #@! TD.AperFunction*
G04 #@! TA.AperFunction,Conductor*
G36*
X145627044Y-91331279D02*
G01*
X147105139Y-92809374D01*
X147105149Y-92809385D01*
X147109479Y-92813715D01*
X147109480Y-92813716D01*
X147221284Y-92925520D01*
X147308095Y-92975639D01*
X147308097Y-92975641D01*
X147346151Y-92997611D01*
X147358215Y-93004577D01*
X147510943Y-93045501D01*
X147510946Y-93045501D01*
X147676653Y-93045501D01*
X147676669Y-93045500D01*
X152185909Y-93045500D01*
X152252948Y-93065185D01*
X152298292Y-93117097D01*
X152300965Y-93122830D01*
X152300966Y-93122831D01*
X152436501Y-93316395D01*
X152436506Y-93316402D01*
X152603597Y-93483493D01*
X152603603Y-93483498D01*
X152789158Y-93613425D01*
X152832783Y-93668002D01*
X152839977Y-93737500D01*
X152808454Y-93799855D01*
X152789158Y-93816575D01*
X152603597Y-93946505D01*
X152436506Y-94113596D01*
X152300965Y-94307170D01*
X152300962Y-94307175D01*
X152298289Y-94312909D01*
X152252115Y-94365346D01*
X152185909Y-94384500D01*
X145478903Y-94384500D01*
X145411864Y-94364815D01*
X145366109Y-94312011D01*
X145356165Y-94242853D01*
X145360972Y-94222183D01*
X145382989Y-94154418D01*
X145382990Y-94154413D01*
X145391609Y-94100000D01*
X144290278Y-94100000D01*
X144334333Y-94023694D01*
X144365000Y-93909244D01*
X144365000Y-93790756D01*
X144334333Y-93676306D01*
X144290278Y-93600000D01*
X145391609Y-93600000D01*
X145382990Y-93545586D01*
X145319755Y-93350970D01*
X145226859Y-93168650D01*
X145106582Y-93003105D01*
X145106582Y-93003104D01*
X144961895Y-92858417D01*
X144796349Y-92738140D01*
X144703370Y-92690765D01*
X144652574Y-92642790D01*
X144635779Y-92574969D01*
X144658316Y-92508835D01*
X144703370Y-92469795D01*
X144796610Y-92422287D01*
X144817770Y-92406913D01*
X144962213Y-92301971D01*
X144962215Y-92301968D01*
X144962219Y-92301966D01*
X145106966Y-92157219D01*
X145106968Y-92157215D01*
X145106971Y-92157213D01*
X145159732Y-92084590D01*
X145227287Y-91991610D01*
X145320220Y-91809219D01*
X145383477Y-91614534D01*
X145415500Y-91412352D01*
X145415500Y-91412334D01*
X145415745Y-91409229D01*
X145416171Y-91408109D01*
X145416262Y-91407540D01*
X145416381Y-91407558D01*
X145440630Y-91343941D01*
X145496862Y-91302471D01*
X145566587Y-91297985D01*
X145627044Y-91331279D01*
G37*
G04 #@! TD.AperFunction*
M02*
