G04 #@! TF.GenerationSoftware,KiCad,Pcbnew,8.0.7*
G04 #@! TF.CreationDate,2024-12-04T23:37:30+01:00*
G04 #@! TF.ProjectId,LuminO,4c756d69-6e4f-42e6-9b69-6361645f7063,rev?*
G04 #@! TF.SameCoordinates,Original*
G04 #@! TF.FileFunction,Legend,Top*
G04 #@! TF.FilePolarity,Positive*
%FSLAX46Y46*%
G04 Gerber Fmt 4.6, Leading zero omitted, Abs format (unit mm)*
G04 Created by KiCad (PCBNEW 8.0.7) date 2024-12-04 23:37:30*
%MOMM*%
%LPD*%
G01*
G04 APERTURE LIST*
%ADD10C,0.150000*%
%ADD11C,0.120000*%
G04 APERTURE END LIST*
D10*
X155929819Y-81083333D02*
X156644104Y-81083333D01*
X156644104Y-81083333D02*
X156786961Y-81130952D01*
X156786961Y-81130952D02*
X156882200Y-81226190D01*
X156882200Y-81226190D02*
X156929819Y-81369047D01*
X156929819Y-81369047D02*
X156929819Y-81464285D01*
X156025057Y-80654761D02*
X155977438Y-80607142D01*
X155977438Y-80607142D02*
X155929819Y-80511904D01*
X155929819Y-80511904D02*
X155929819Y-80273809D01*
X155929819Y-80273809D02*
X155977438Y-80178571D01*
X155977438Y-80178571D02*
X156025057Y-80130952D01*
X156025057Y-80130952D02*
X156120295Y-80083333D01*
X156120295Y-80083333D02*
X156215533Y-80083333D01*
X156215533Y-80083333D02*
X156358390Y-80130952D01*
X156358390Y-80130952D02*
X156929819Y-80702380D01*
X156929819Y-80702380D02*
X156929819Y-80083333D01*
X142293095Y-105064819D02*
X142293095Y-105874342D01*
X142293095Y-105874342D02*
X142340714Y-105969580D01*
X142340714Y-105969580D02*
X142388333Y-106017200D01*
X142388333Y-106017200D02*
X142483571Y-106064819D01*
X142483571Y-106064819D02*
X142674047Y-106064819D01*
X142674047Y-106064819D02*
X142769285Y-106017200D01*
X142769285Y-106017200D02*
X142816904Y-105969580D01*
X142816904Y-105969580D02*
X142864523Y-105874342D01*
X142864523Y-105874342D02*
X142864523Y-105064819D01*
X143864523Y-106064819D02*
X143293095Y-106064819D01*
X143578809Y-106064819D02*
X143578809Y-105064819D01*
X143578809Y-105064819D02*
X143483571Y-105207676D01*
X143483571Y-105207676D02*
X143388333Y-105302914D01*
X143388333Y-105302914D02*
X143293095Y-105350533D01*
X155929819Y-87083333D02*
X156644104Y-87083333D01*
X156644104Y-87083333D02*
X156786961Y-87130952D01*
X156786961Y-87130952D02*
X156882200Y-87226190D01*
X156882200Y-87226190D02*
X156929819Y-87369047D01*
X156929819Y-87369047D02*
X156929819Y-87464285D01*
X155929819Y-86702380D02*
X155929819Y-86083333D01*
X155929819Y-86083333D02*
X156310771Y-86416666D01*
X156310771Y-86416666D02*
X156310771Y-86273809D01*
X156310771Y-86273809D02*
X156358390Y-86178571D01*
X156358390Y-86178571D02*
X156406009Y-86130952D01*
X156406009Y-86130952D02*
X156501247Y-86083333D01*
X156501247Y-86083333D02*
X156739342Y-86083333D01*
X156739342Y-86083333D02*
X156834580Y-86130952D01*
X156834580Y-86130952D02*
X156882200Y-86178571D01*
X156882200Y-86178571D02*
X156929819Y-86273809D01*
X156929819Y-86273809D02*
X156929819Y-86559523D01*
X156929819Y-86559523D02*
X156882200Y-86654761D01*
X156882200Y-86654761D02*
X156834580Y-86702380D01*
X155954819Y-95333333D02*
X156669104Y-95333333D01*
X156669104Y-95333333D02*
X156811961Y-95380952D01*
X156811961Y-95380952D02*
X156907200Y-95476190D01*
X156907200Y-95476190D02*
X156954819Y-95619047D01*
X156954819Y-95619047D02*
X156954819Y-95714285D01*
X156954819Y-94333333D02*
X156954819Y-94904761D01*
X156954819Y-94619047D02*
X155954819Y-94619047D01*
X155954819Y-94619047D02*
X156097676Y-94714285D01*
X156097676Y-94714285D02*
X156192914Y-94809523D01*
X156192914Y-94809523D02*
X156240533Y-94904761D01*
D11*
X152145000Y-81020000D02*
X152145000Y-83620000D01*
X152145000Y-81020000D02*
X154805000Y-81020000D01*
X152145000Y-83620000D02*
X154805000Y-83620000D01*
X153475000Y-78420000D02*
X154805000Y-78420000D01*
X154805000Y-78420000D02*
X154805000Y-79750000D01*
X154805000Y-81020000D02*
X154805000Y-83620000D01*
X119555000Y-97830000D02*
X119555000Y-72400000D01*
X119555000Y-97830000D02*
X122095000Y-97830000D01*
X122095000Y-97830000D02*
X122095000Y-104730000D01*
X122095000Y-104730000D02*
X145415000Y-104730000D01*
X143295000Y-70270000D02*
X121685000Y-70270000D01*
X145415000Y-104730000D02*
X145415000Y-72400000D01*
X119555000Y-72400000D02*
G75*
G02*
X121685000Y-70270000I2130002J-2D01*
G01*
X143285000Y-70270000D02*
G75*
G02*
X145415000Y-72400000I0J-2130000D01*
G01*
D10*
X119150000Y-78610000D02*
X118515000Y-79245000D01*
X118515000Y-77975000D01*
X119150000Y-78610000D01*
G36*
X119150000Y-78610000D02*
G01*
X118515000Y-79245000D01*
X118515000Y-77975000D01*
X119150000Y-78610000D01*
G37*
D11*
X152170000Y-87270000D02*
X152170000Y-89870000D01*
X152170000Y-87270000D02*
X154830000Y-87270000D01*
X152170000Y-89870000D02*
X154830000Y-89870000D01*
X153500000Y-84670000D02*
X154830000Y-84670000D01*
X154830000Y-84670000D02*
X154830000Y-86000000D01*
X154830000Y-87270000D02*
X154830000Y-89870000D01*
X154805000Y-96255000D02*
X154805000Y-91115000D01*
X154805000Y-96255000D02*
X152145000Y-96255000D01*
X154805000Y-91115000D02*
X152145000Y-91115000D01*
X153475000Y-98855000D02*
X152145000Y-98855000D01*
X152145000Y-98855000D02*
X152145000Y-97525000D01*
X152145000Y-96255000D02*
X152145000Y-91115000D01*
M02*
